<svg width="131" height="128" viewBox="0 0 131 128" fill="none" xmlns="http://www.w3.org/2000/svg">
<path d="M0 12C0 5.37258 5.37258 0 12 0H119C125.627 0 131 5.37258 131 12V116C131 122.627 125.627 128 119 128H12C5.37258 128 0 122.627 0 116V12Z" fill="#FF6C02"/>
<path d="M33.0991 94.416L33.0631 97.242H33.7831C34.2751 97.23 34.7131 97.224 35.0971 97.224C35.4811 97.224 35.9071 97.23 36.3751 97.242H36.4651C36.6091 97.242 36.7471 97.248 36.8791 97.26C37.0231 97.26 37.1611 97.26 37.2931 97.26C37.4371 97.272 37.5751 97.296 37.7071 97.332C37.8391 97.356 37.9711 97.386 38.1031 97.422C38.3071 97.494 38.4751 97.602 38.6071 97.746C38.7271 97.902 38.7871 98.076 38.7871 98.268C38.7871 98.328 38.7871 98.4 38.7871 98.484C38.7871 98.556 38.7751 98.622 38.7511 98.682C38.7271 98.814 38.6491 98.934 38.5171 99.042C38.4571 99.126 38.3431 99.186 38.1751 99.222C38.0191 99.27 37.8631 99.3 37.7071 99.312C37.5391 99.348 37.3711 99.366 37.2031 99.366H36.3571L33.0271 99.384L32.9911 102.912L36.5731 102.948H37.4191C37.5151 102.948 37.6051 102.948 37.6891 102.948C37.7731 102.948 37.8511 102.954 37.9231 102.966C38.0191 102.99 38.1031 103.008 38.1751 103.02C38.2591 103.02 38.3371 103.032 38.4091 103.056C38.5531 103.104 38.6731 103.17 38.7691 103.254C38.8891 103.374 38.9671 103.5 39.0031 103.632C39.0151 103.692 39.0211 103.758 39.0211 103.83C39.0331 103.89 39.0331 103.956 39.0211 104.028C39.0211 104.22 38.9611 104.394 38.8411 104.55C38.6971 104.718 38.5291 104.826 38.3371 104.874C38.0851 104.982 37.8091 105.036 37.5091 105.036C37.3771 105.048 37.2391 105.054 37.0951 105.054C36.9511 105.054 36.8131 105.06 36.6811 105.072H36.5731C35.6371 105.096 34.6651 105.096 33.6571 105.072C33.4171 105.072 33.2251 105.066 33.0811 105.054C32.9371 105.054 32.8051 105.054 32.6851 105.054C32.5771 105.054 32.4631 105.054 32.3431 105.054C32.2231 105.054 32.0671 105.054 31.8751 105.054C31.5991 105.078 31.3711 105.03 31.1911 104.91C31.0591 104.826 30.9571 104.712 30.8851 104.568C30.8491 104.532 30.8311 104.496 30.8311 104.46C30.8191 104.436 30.8071 104.418 30.7951 104.406C30.7831 104.394 30.7711 104.376 30.7591 104.352C30.7351 104.292 30.7171 104.232 30.7051 104.172C30.6931 104.1 30.6871 104.034 30.6871 103.974C30.6751 103.914 30.6631 103.854 30.6511 103.794C30.6511 103.734 30.6451 103.674 30.6331 103.614V103.326C30.6331 103.278 30.6331 103.23 30.6331 103.182C30.6451 103.134 30.6511 103.086 30.6511 103.038V101.634L30.6871 99.042V96.648C30.6871 96.216 30.6871 95.832 30.6871 95.496C30.6991 95.16 30.7111 94.794 30.7231 94.398V94.308C30.7351 94.176 30.7411 94.056 30.7411 93.948C30.7531 93.828 30.7591 93.708 30.7591 93.588C30.7711 93.348 30.8371 93.114 30.9571 92.886C31.0051 92.79 31.0531 92.706 31.1011 92.634C31.1611 92.562 31.2391 92.502 31.3351 92.454C31.5151 92.346 31.7011 92.292 31.8931 92.292C31.9891 92.292 32.0611 92.298 32.1091 92.31V92.292C32.3251 92.292 32.4991 92.292 32.6311 92.292C32.7631 92.292 32.8891 92.292 33.0091 92.292C33.1411 92.292 33.2791 92.292 33.4231 92.292C33.5671 92.28 33.7651 92.274 34.0171 92.274C34.4971 92.262 34.9531 92.256 35.3851 92.256C35.8171 92.256 36.2611 92.262 36.7171 92.274H36.7891C36.9211 92.286 37.0591 92.292 37.2031 92.292C37.3471 92.292 37.4851 92.298 37.6171 92.31C37.7491 92.31 37.8811 92.328 38.0131 92.364C38.1451 92.388 38.2771 92.424 38.4091 92.472C38.6131 92.532 38.7811 92.634 38.9131 92.778C39.0211 92.946 39.0751 93.114 39.0751 93.282C39.0751 93.354 39.0751 93.426 39.0751 93.498C39.0751 93.558 39.0631 93.618 39.0391 93.678C39.0271 93.798 38.9551 93.924 38.8231 94.056C38.7751 94.08 38.7211 94.11 38.6611 94.146C38.6131 94.182 38.5531 94.212 38.4811 94.236C38.4091 94.26 38.3311 94.278 38.2471 94.29C38.1751 94.29 38.1031 94.296 38.0311 94.308C37.9351 94.332 37.8451 94.344 37.7611 94.344C37.6891 94.344 37.6051 94.344 37.5091 94.344H36.6991L33.0991 94.362V94.416ZM46.47 101.562C46.602 101.73 46.782 101.946 47.01 102.21C47.25 102.462 47.472 102.732 47.676 103.02C47.892 103.296 48.066 103.572 48.198 103.848C48.33 104.124 48.366 104.364 48.306 104.568C48.21 104.88 48.03 105.06 47.766 105.108C47.502 105.156 47.226 105.108 46.938 104.964C46.734 104.868 46.5 104.7 46.236 104.46C45.972 104.22 45.714 103.968 45.462 103.704C45.222 103.44 45.006 103.194 44.814 102.966C44.622 102.726 44.49 102.558 44.418 102.462C44.418 102.45 44.412 102.444 44.4 102.444C44.4 102.444 44.4 102.438 44.4 102.426C44.316 102.522 44.232 102.63 44.148 102.75C44.064 102.858 43.974 102.966 43.878 103.074C43.758 103.218 43.62 103.392 43.464 103.596C43.32 103.788 43.158 103.98 42.978 104.172C42.81 104.364 42.63 104.544 42.438 104.712C42.258 104.868 42.078 104.982 41.898 105.054C41.658 105.15 41.424 105.132 41.196 105C40.98 104.88 40.842 104.712 40.782 104.496C40.71 104.244 40.728 103.98 40.836 103.704C40.944 103.428 41.088 103.164 41.268 102.912C41.448 102.648 41.64 102.396 41.844 102.156C42.06 101.916 42.234 101.706 42.366 101.526C42.498 101.358 42.612 101.214 42.708 101.094C42.816 100.962 42.918 100.836 43.014 100.716C42.846 100.536 42.666 100.338 42.474 100.122C42.282 99.894 42.012 99.6 41.664 99.24C41.544 99.108 41.412 98.964 41.268 98.808C41.124 98.64 40.992 98.466 40.872 98.286C40.752 98.106 40.656 97.92 40.584 97.728C40.512 97.536 40.494 97.338 40.53 97.134C40.566 96.954 40.644 96.81 40.764 96.702C40.884 96.582 41.028 96.504 41.196 96.468C41.364 96.42 41.538 96.414 41.718 96.45C41.898 96.486 42.066 96.558 42.222 96.666C42.534 96.894 42.828 97.176 43.104 97.512C43.38 97.848 43.65 98.166 43.914 98.466C43.998 98.574 44.076 98.676 44.148 98.772C44.232 98.856 44.31 98.94 44.382 99.024C44.442 98.928 44.514 98.832 44.598 98.736C44.694 98.64 44.79 98.526 44.886 98.394C45.126 98.106 45.366 97.806 45.606 97.494C45.858 97.182 46.134 96.912 46.434 96.684C46.59 96.564 46.752 96.492 46.92 96.468C47.1 96.432 47.268 96.438 47.424 96.486C47.58 96.522 47.718 96.594 47.838 96.702C47.958 96.81 48.036 96.942 48.072 97.098C48.12 97.29 48.114 97.482 48.054 97.674C48.006 97.866 47.922 98.052 47.802 98.232C47.694 98.412 47.568 98.586 47.424 98.754C47.292 98.91 47.166 99.054 47.046 99.186C46.77 99.486 46.53 99.756 46.326 99.996C46.122 100.236 45.93 100.464 45.75 100.68C45.858 100.8 45.966 100.932 46.074 101.076C46.194 101.208 46.326 101.37 46.47 101.562ZM54.8157 96.9C55.1637 97.044 55.4817 97.254 55.7697 97.53C56.0577 97.794 56.3037 98.1 56.5077 98.448C56.7237 98.796 56.8857 99.174 56.9937 99.582C57.1137 99.978 57.1737 100.38 57.1737 100.788C57.1857 101.4 57.0417 101.976 56.7417 102.516C56.4537 103.056 55.9797 103.47 55.3197 103.758C54.8157 103.962 54.2937 104.118 53.7537 104.226C53.2257 104.322 52.6737 104.388 52.0977 104.424V107.718C52.0977 107.79 52.0857 107.856 52.0617 107.916C52.0497 107.976 52.0437 108.036 52.0437 108.096C52.0197 108.216 51.9897 108.324 51.9537 108.42C51.9297 108.516 51.8937 108.618 51.8457 108.726C51.7977 108.798 51.7497 108.864 51.7017 108.924C51.6537 108.984 51.5997 109.044 51.5397 109.104C51.2517 109.248 50.9517 109.278 50.6397 109.194C50.4477 109.182 50.2917 109.122 50.1717 109.014C50.0637 108.906 49.9857 108.792 49.9377 108.672C49.8897 108.552 49.8477 108.414 49.8117 108.258C49.7997 108.198 49.7877 108.138 49.7757 108.078C49.7757 108.03 49.7757 107.976 49.7757 107.916V97.89C49.7757 97.818 49.7757 97.746 49.7757 97.674C49.7877 97.59 49.7997 97.506 49.8117 97.422C49.8237 97.278 49.8597 97.134 49.9197 96.99C50.0277 96.69 50.2497 96.486 50.5857 96.378C50.9217 96.27 51.2997 96.222 51.7197 96.234C52.0077 96.246 52.3017 96.276 52.6017 96.324C52.9137 96.372 53.2077 96.432 53.4837 96.504C53.7717 96.564 54.0297 96.63 54.2577 96.702C54.4857 96.774 54.6717 96.84 54.8157 96.9ZM54.8517 100.788C54.8997 100.452 54.8577 100.17 54.7257 99.942C54.6057 99.702 54.4317 99.51 54.2037 99.366C53.9757 99.21 53.7117 99.09 53.4117 99.006C53.1237 98.922 52.8357 98.862 52.5477 98.826C52.5117 98.814 52.4517 98.808 52.3677 98.808C52.2957 98.808 52.2117 98.808 52.1157 98.808C52.1157 99.192 52.1157 99.564 52.1157 99.924C52.1277 100.272 52.1277 100.65 52.1157 101.058V102.264C52.3917 102.252 52.6797 102.222 52.9797 102.174C53.2917 102.126 53.5797 102.048 53.8437 101.94C54.1077 101.832 54.3297 101.688 54.5097 101.508C54.7017 101.328 54.8157 101.088 54.8517 100.788ZM58.653 98.628C58.653 98.484 58.653 98.322 58.653 98.142C58.653 97.95 58.659 97.758 58.671 97.566C58.683 97.362 58.701 97.17 58.725 96.99C58.761 96.798 58.809 96.63 58.869 96.486C58.965 96.27 59.115 96.126 59.319 96.054C59.523 95.97 59.745 95.934 59.985 95.946C60.237 95.946 60.435 95.988 60.579 96.072C60.723 96.156 60.831 96.27 60.903 96.414C60.975 96.546 61.017 96.702 61.029 96.882C61.053 97.05 61.065 97.23 61.065 97.422C61.173 97.23 61.317 97.074 61.497 96.954C61.689 96.834 61.881 96.738 62.073 96.666C62.265 96.594 62.439 96.546 62.595 96.522C62.751 96.486 62.841 96.468 62.865 96.468C63.165 96.444 63.435 96.438 63.675 96.45C63.927 96.462 64.203 96.516 64.503 96.612C64.695 96.684 64.893 96.786 65.097 96.918C65.301 97.038 65.481 97.182 65.637 97.35C65.793 97.518 65.895 97.704 65.943 97.908C66.003 98.1 65.979 98.304 65.871 98.52C65.703 98.82 65.517 98.97 65.313 98.97C65.109 98.958 64.887 98.922 64.647 98.862C64.515 98.838 64.359 98.784 64.179 98.7C63.999 98.616 63.843 98.562 63.711 98.538C63.303 98.478 62.943 98.508 62.631 98.628C62.319 98.748 62.049 98.892 61.821 99.06C61.557 99.264 61.329 99.498 61.137 99.762V102.354C61.137 102.678 61.131 103.014 61.119 103.362C61.119 103.71 61.071 104.028 60.975 104.316C60.891 104.592 60.741 104.82 60.525 105C60.321 105.168 60.021 105.24 59.625 105.216C59.409 105.204 59.217 105.102 59.049 104.91C58.881 104.706 58.779 104.508 58.743 104.316C58.719 104.136 58.701 103.92 58.689 103.668C58.677 103.416 58.665 103.152 58.653 102.876C58.653 102.6 58.653 102.324 58.653 102.048C58.653 101.76 58.653 101.496 58.653 101.256V98.628ZM72.5798 102.534C72.7238 102.498 72.8678 102.474 73.0118 102.462C73.1678 102.45 73.3058 102.468 73.4258 102.516C73.5578 102.564 73.6658 102.648 73.7498 102.768C73.8338 102.876 73.8758 103.032 73.8758 103.236C73.8758 103.38 73.8398 103.518 73.7678 103.65C73.6958 103.782 73.6058 103.902 73.4978 104.01C73.3898 104.118 73.2698 104.214 73.1378 104.298C73.0058 104.37 72.8798 104.43 72.7598 104.478C72.4118 104.634 72.0098 104.754 71.5538 104.838C71.1098 104.922 70.6478 104.952 70.1678 104.928C69.5198 104.904 68.8958 104.778 68.2958 104.55C67.7078 104.31 67.2458 103.92 66.9098 103.38C66.5978 102.852 66.4118 102.264 66.3518 101.616C66.2918 100.968 66.3218 100.356 66.4418 99.78C66.5738 99.084 66.7958 98.52 67.1078 98.088C67.4318 97.644 67.8158 97.29 68.2598 97.026C68.7998 96.714 69.4058 96.552 70.0778 96.54C70.7498 96.528 71.3918 96.66 72.0038 96.936C72.4118 97.116 72.7778 97.362 73.1018 97.674C73.4258 97.974 73.6718 98.34 73.8398 98.772C73.8878 98.88 73.9238 99.012 73.9478 99.168C73.9838 99.324 74.0078 99.492 74.0198 99.672C74.0318 99.84 74.0318 100.008 74.0198 100.176C74.0078 100.344 73.9778 100.494 73.9298 100.626C73.8578 100.842 73.7678 101.01 73.6598 101.13C73.5518 101.25 73.4138 101.34 73.2458 101.4C73.0778 101.46 72.8738 101.502 72.6338 101.526C72.4058 101.538 72.1298 101.55 71.8058 101.562C71.5178 101.574 71.2478 101.58 70.9958 101.58C70.7438 101.58 70.4858 101.58 70.2218 101.58C69.9578 101.568 69.6818 101.562 69.3938 101.562C69.1178 101.55 68.8058 101.538 68.4578 101.526C68.4218 101.766 68.4518 101.976 68.5478 102.156C68.6558 102.324 68.7998 102.468 68.9798 102.588C69.1598 102.696 69.3638 102.78 69.5918 102.84C69.8198 102.9 70.0418 102.936 70.2578 102.948C70.6658 102.972 71.0558 102.942 71.4278 102.858C71.7998 102.762 72.1838 102.654 72.5798 102.534ZM71.8058 99.042C71.5778 98.778 71.3378 98.586 71.0858 98.466C70.8938 98.382 70.6898 98.346 70.4738 98.358C70.2698 98.358 70.0718 98.388 69.8798 98.448C69.5318 98.532 69.2378 98.712 68.9978 98.988C68.9738 99.012 68.9318 99.072 68.8718 99.168C68.8118 99.252 68.7518 99.342 68.6918 99.438C68.6438 99.534 68.6078 99.624 68.5838 99.708C68.5598 99.792 68.5718 99.834 68.6198 99.834H72.1478C72.1358 99.666 72.1058 99.528 72.0578 99.42C72.0098 99.3 71.9258 99.174 71.8058 99.042ZM79.7769 101.832C79.5489 101.688 79.2909 101.574 79.0029 101.49C78.7269 101.406 78.4389 101.328 78.1389 101.256C77.8509 101.184 77.5689 101.106 77.2929 101.022C77.0169 100.926 76.7649 100.794 76.5369 100.626C76.0449 100.254 75.7569 99.798 75.6729 99.258C75.6009 98.706 75.7209 98.154 76.0329 97.602C76.2009 97.314 76.4229 97.08 76.6989 96.9C76.9749 96.708 77.2749 96.564 77.5989 96.468C77.9349 96.36 78.2769 96.3 78.6249 96.288C78.9729 96.276 79.3029 96.294 79.6149 96.342C79.8189 96.378 80.0349 96.432 80.2629 96.504C80.4909 96.564 80.7009 96.648 80.8929 96.756C81.0969 96.864 81.2769 97.002 81.4329 97.17C81.6009 97.326 81.7209 97.524 81.7929 97.764C81.8409 97.92 81.8469 98.07 81.8109 98.214C81.7869 98.358 81.7269 98.478 81.6309 98.574C81.5469 98.67 81.4329 98.742 81.2889 98.79C81.1569 98.838 81.0129 98.85 80.8569 98.826C80.6769 98.79 80.5089 98.736 80.3529 98.664C80.1969 98.592 80.0409 98.514 79.8849 98.43C79.7289 98.346 79.5669 98.274 79.3989 98.214C79.2429 98.154 79.0749 98.124 78.8949 98.124C78.6189 98.112 78.3909 98.16 78.2109 98.268C78.0309 98.376 77.9049 98.508 77.8329 98.664C77.7729 98.82 77.7789 98.988 77.8509 99.168C77.9349 99.348 78.1029 99.504 78.3549 99.636C78.5829 99.756 78.8349 99.852 79.1109 99.924C79.3869 99.996 79.6569 100.068 79.9209 100.14C80.1969 100.212 80.4609 100.296 80.7129 100.392C80.9769 100.488 81.2109 100.62 81.4149 100.788C81.8109 101.112 82.0509 101.49 82.1349 101.922C82.2309 102.354 82.2069 102.78 82.0629 103.2C81.9189 103.62 81.6669 103.992 81.3069 104.316C80.9589 104.64 80.5449 104.856 80.0649 104.964C79.7169 105.036 79.3389 105.072 78.9309 105.072C78.5349 105.072 78.1389 105.03 77.7429 104.946C77.3589 104.862 76.9869 104.73 76.6269 104.55C76.2789 104.37 75.9849 104.142 75.7449 103.866C75.5769 103.674 75.4869 103.458 75.4749 103.218C75.4749 102.966 75.5229 102.75 75.6189 102.57C75.7269 102.378 75.8769 102.246 76.0689 102.174C76.2609 102.102 76.4769 102.144 76.7169 102.3C76.9089 102.432 77.1369 102.564 77.4009 102.696C77.6649 102.816 77.9289 102.912 78.1929 102.984C78.4569 103.056 78.7089 103.092 78.9489 103.092C79.2009 103.092 79.4169 103.038 79.5969 102.93C79.8609 102.762 79.9989 102.57 80.0109 102.354C80.0229 102.126 79.9449 101.952 79.7769 101.832ZM87.9507 101.832C87.7227 101.688 87.4647 101.574 87.1767 101.49C86.9007 101.406 86.6127 101.328 86.3127 101.256C86.0247 101.184 85.7427 101.106 85.4667 101.022C85.1907 100.926 84.9387 100.794 84.7107 100.626C84.2187 100.254 83.9307 99.798 83.8467 99.258C83.7747 98.706 83.8947 98.154 84.2067 97.602C84.3747 97.314 84.5967 97.08 84.8727 96.9C85.1487 96.708 85.4487 96.564 85.7727 96.468C86.1087 96.36 86.4507 96.3 86.7987 96.288C87.1467 96.276 87.4767 96.294 87.7887 96.342C87.9927 96.378 88.2087 96.432 88.4367 96.504C88.6647 96.564 88.8747 96.648 89.0667 96.756C89.2707 96.864 89.4507 97.002 89.6067 97.17C89.7747 97.326 89.8947 97.524 89.9667 97.764C90.0147 97.92 90.0207 98.07 89.9847 98.214C89.9607 98.358 89.9007 98.478 89.8047 98.574C89.7207 98.67 89.6067 98.742 89.4627 98.79C89.3307 98.838 89.1867 98.85 89.0307 98.826C88.8507 98.79 88.6827 98.736 88.5267 98.664C88.3707 98.592 88.2147 98.514 88.0587 98.43C87.9027 98.346 87.7407 98.274 87.5727 98.214C87.4167 98.154 87.2487 98.124 87.0687 98.124C86.7927 98.112 86.5647 98.16 86.3847 98.268C86.2047 98.376 86.0787 98.508 86.0067 98.664C85.9467 98.82 85.9527 98.988 86.0247 99.168C86.1087 99.348 86.2767 99.504 86.5287 99.636C86.7567 99.756 87.0087 99.852 87.2847 99.924C87.5607 99.996 87.8307 100.068 88.0947 100.14C88.3707 100.212 88.6347 100.296 88.8867 100.392C89.1507 100.488 89.3847 100.62 89.5887 100.788C89.9847 101.112 90.2247 101.49 90.3087 101.922C90.4047 102.354 90.3807 102.78 90.2367 103.2C90.0927 103.62 89.8407 103.992 89.4807 104.316C89.1327 104.64 88.7187 104.856 88.2387 104.964C87.8907 105.036 87.5127 105.072 87.1047 105.072C86.7087 105.072 86.3127 105.03 85.9167 104.946C85.5327 104.862 85.1607 104.73 84.8007 104.55C84.4527 104.37 84.1587 104.142 83.9187 103.866C83.7507 103.674 83.6607 103.458 83.6487 103.218C83.6487 102.966 83.6967 102.75 83.7927 102.57C83.9007 102.378 84.0507 102.246 84.2427 102.174C84.4347 102.102 84.6507 102.144 84.8907 102.3C85.0827 102.432 85.3107 102.564 85.5747 102.696C85.8387 102.816 86.1027 102.912 86.3667 102.984C86.6307 103.056 86.8827 103.092 87.1227 103.092C87.3747 103.092 87.5907 103.038 87.7707 102.93C88.0347 102.762 88.1727 102.57 88.1847 102.354C88.1967 102.126 88.1187 101.952 87.9507 101.832ZM94.1445 96.864C94.5405 96.672 94.9545 96.534 95.3865 96.45C95.8185 96.366 96.2445 96.348 96.6645 96.396C97.0965 96.444 97.5105 96.558 97.9065 96.738C98.3145 96.918 98.6865 97.17 99.0225 97.494C99.2985 97.77 99.5385 98.106 99.7425 98.502C99.9465 98.886 100.097 99.264 100.193 99.636C100.397 100.296 100.427 100.962 100.283 101.634C100.139 102.306 99.8925 102.93 99.5445 103.506C99.3765 103.77 99.1665 104.01 98.9145 104.226C98.6745 104.43 98.4165 104.598 98.1405 104.73C97.7805 104.898 97.3905 105.012 96.9705 105.072C96.5505 105.144 96.1425 105.162 95.7465 105.126C95.0265 105.09 94.3905 104.91 93.8385 104.586C93.2985 104.262 92.8605 103.848 92.5245 103.344C92.2005 102.84 91.9845 102.27 91.8765 101.634C91.7805 100.986 91.8225 100.326 92.0025 99.654C92.1945 98.934 92.4705 98.352 92.8305 97.908C93.2025 97.452 93.6405 97.104 94.1445 96.864ZM94.6845 99.276C94.5045 99.444 94.3665 99.654 94.2705 99.906C94.1745 100.158 94.1145 100.422 94.0905 100.698C94.0665 100.962 94.0845 101.232 94.1445 101.508C94.2165 101.772 94.3245 102.012 94.4685 102.228C94.5885 102.408 94.8045 102.558 95.1165 102.678C95.4285 102.798 95.7525 102.87 96.0885 102.894C96.4725 102.918 96.8085 102.816 97.0965 102.588C97.3845 102.348 97.6005 102.054 97.7445 101.706C97.9005 101.358 97.9725 100.98 97.9605 100.572C97.9485 100.164 97.8405 99.792 97.6365 99.456C97.4925 99.216 97.2885 99.042 97.0245 98.934C96.7725 98.814 96.5025 98.754 96.2145 98.754C95.9385 98.742 95.6625 98.784 95.3865 98.88C95.1105 98.964 94.8765 99.096 94.6845 99.276Z" fill="white"/>
<path d="M64.3402 83.7747C64.3402 75.9353 64.5583 68.0999 64.5583 60.2878C64.5583 59.3969 63.5395 59.0698 62.5952 58.665C60.9094 57.9425 59.2781 57.2413 58.0147 55.9347C55.5201 53.355 53.0583 49.2938 54.137 45.6826C54.7705 43.5616 57.6766 41.1425 59.7596 40.2001C62.4316 38.9912 65.0007 38.7747 67.927 38.7747C72.1379 38.7747 75.2568 40.0973 76.6034 43.7527C77.6391 46.5643 77.2277 50.8339 75.3553 53.2812C73.915 55.1636 71.6325 58.2107 69.0903 58.9501C67.898 59.2969 66.688 59.6957 65.4308 59.6957C64.8598 59.6957 63.3986 59.4202 63.0314 59.0049C62.6109 58.5293 61.678 58.461 61.2865 58.0181C60.8676 57.5443 60.4259 56.9861 59.9293 56.5817C58.643 55.5341 56.947 54.5139 55.2882 54.1804C53.7212 53.8653 50.7166 54.3275 50.5986 56.1431C50.5307 57.1863 50.116 58.2129 50.1623 59.3448C50.2164 60.6651 51.6285 61.6419 52.7798 62.1628C54.3017 62.8514 57.9955 63.5929 59.0568 61.779C60.0031 60.1616 59.1219 58.0656 57.8935 56.6365C57.3519 56.0064 57.3779 54.967 56.815 54.3558C56.3014 53.7981 56.2888 52.5004 55.6153 52.1957" stroke="white" stroke-width="3" stroke-linecap="round"/>
<path d="M56.0777 43.4497C56.0777 41.4234 57.0334 39.7723 55.905 37.8499C54.7587 35.8969 53.4183 33.9444 50.9218 33.9028C48.9 33.8691 48.2278 33.8199 47.0241 35.457C46.0606 36.7673 45.7575 38.7568 46.1977 40.3414C46.851 42.6932 47.5365 44.7819 50.4038 44.7819C51.3926 44.7819 52.6573 44.9962 53.5368 44.4365C54.1398 44.0527 54.7147 43.9246 55.2389 43.4004C55.5335 43.1059 56.011 42.484 56.2997 42.3396" stroke="white" stroke-width="3" stroke-linecap="round"/>
<path d="M66.9568 38.1212C65.1072 38.1212 63.8574 37.3734 62.9604 35.6789C62.3019 34.4351 61.9654 32.8559 62.4053 31.4482C63.7053 27.2883 69.4842 27.5714 72.8527 28.7963C74.6621 29.4543 75.5659 33.7922 74.2835 35.2349C73.4387 36.1852 73.0067 37.3318 71.7302 37.8992C70.5872 38.4072 69.8115 38.5652 68.5109 38.5652" stroke="white" stroke-width="3" stroke-linecap="round"/>
<path d="M77.8358 44.5598C77.8358 43.262 77.7769 41.8311 78.7732 40.8348C79.9903 39.6177 81.4261 38.7872 83.1643 38.7872C86.8156 38.7872 86.645 42.9642 86.4947 45.6699C86.4132 47.1353 85.0199 48.4768 84.0524 49.4443C83.4149 50.0817 82.7226 50.3324 81.8322 50.3324C81.1292 50.3324 80.6988 49.9597 80.056 49.8883C79.0311 49.7744 78.4597 47.5732 78.1072 46.78C77.5704 45.5722 77.6138 43.8886 77.6138 42.5616" stroke="white" stroke-width="3" stroke-linecap="round"/>
<path d="M74.7275 56.993C73.4614 57.1337 72.5073 60.3423 72.5073 61.4334C72.5073 62.6813 73.1482 63.8914 74.2835 64.4924C74.9405 64.8402 75.3419 65.4298 76.183 65.4298C76.956 65.4298 77.7289 65.4298 78.5019 65.4298C79.7734 65.4298 81.4216 64.2327 81.8815 63.0369C82.0925 62.4886 82.5491 61.8304 82.8313 61.3224C83.0824 60.8705 82.9423 60.1155 82.9423 59.6079C82.9423 58.0196 82.282 57.4595 81.2155 56.4996C80.2563 55.6364 75.366 55.272 74.7275 56.549" stroke="white" stroke-width="3" stroke-linecap="round"/>
</svg>
