<svg width="131" height="129" viewBox="0 0 131 129" fill="none" xmlns="http://www.w3.org/2000/svg">
<path d="M0 12C0 5.37258 5.37258 0 12 0H119C125.627 0 131 5.37258 131 12V117C131 123.627 125.627 129 119 129H12C5.37258 129 0 123.627 0 117V12Z" fill="#046ED1"/>
<path d="M38.9792 98.976C39.1352 99.324 39.1412 99.666 38.9972 100.002C38.8532 100.326 38.6252 100.626 38.3132 100.902C38.0012 101.178 37.6412 101.418 37.2332 101.622C36.8372 101.826 36.4592 101.97 36.0992 102.054C35.7032 102.138 35.2832 102.174 34.8392 102.162C34.4072 102.162 33.9692 102.108 33.5252 102C33.0932 101.904 32.6672 101.76 32.2472 101.568C31.8392 101.364 31.4612 101.118 31.1132 100.83C30.6932 100.482 30.3632 100.068 30.1232 99.588C29.8952 99.096 29.7272 98.574 29.6192 98.022C29.5112 97.47 29.4512 96.918 29.4392 96.366C29.4392 95.802 29.4572 95.274 29.4932 94.782C29.5292 94.338 29.6192 93.876 29.7632 93.396C29.9072 92.916 30.1052 92.448 30.3572 91.992C30.6212 91.524 30.9332 91.092 31.2932 90.696C31.6652 90.3 32.0972 89.964 32.5892 89.688C32.9612 89.472 33.3752 89.328 33.8312 89.256C34.2992 89.172 34.7672 89.154 35.2352 89.202C35.7152 89.238 36.1652 89.34 36.5852 89.508C37.0172 89.664 37.3832 89.88 37.6832 90.156C37.8752 90.324 38.0732 90.558 38.2772 90.858C38.4932 91.158 38.6492 91.464 38.7452 91.776C38.8412 92.088 38.8412 92.382 38.7452 92.658C38.6612 92.922 38.4212 93.102 38.0252 93.198C37.8572 93.246 37.7072 93.258 37.5752 93.234C37.4432 93.198 37.3232 93.144 37.2152 93.072C37.1072 92.988 37.0052 92.892 36.9092 92.784C36.8132 92.676 36.7232 92.568 36.6392 92.46C36.3512 92.112 36.0152 91.878 35.6312 91.758C35.2472 91.626 34.8632 91.596 34.4792 91.668C34.1072 91.728 33.7532 91.884 33.4172 92.136C33.0932 92.376 32.8412 92.688 32.6612 93.072C32.4692 93.48 32.3132 93.93 32.1932 94.422C32.0852 94.902 32.0252 95.394 32.0132 95.898C32.0012 96.39 32.0432 96.87 32.1392 97.338C32.2472 97.806 32.4272 98.22 32.6792 98.58C32.8712 98.868 33.1052 99.102 33.3812 99.282C33.6692 99.462 33.9752 99.588 34.2992 99.66C34.6232 99.732 34.9472 99.744 35.2712 99.696C35.6072 99.648 35.9312 99.54 36.2432 99.372C36.3392 99.324 36.4412 99.258 36.5492 99.174C36.6692 99.078 36.7892 98.982 36.9092 98.886C37.0292 98.79 37.1492 98.7 37.2692 98.616C37.4012 98.532 37.5392 98.472 37.6832 98.436C37.8992 98.364 38.1332 98.37 38.3852 98.454C38.6492 98.538 38.8472 98.712 38.9792 98.976ZM42.8701 93.864C43.2661 93.672 43.6801 93.534 44.1121 93.45C44.5441 93.366 44.9701 93.348 45.3901 93.396C45.8221 93.444 46.2361 93.558 46.6321 93.738C47.0401 93.918 47.4121 94.17 47.7481 94.494C48.0241 94.77 48.2641 95.106 48.4681 95.502C48.6721 95.886 48.8221 96.264 48.9181 96.636C49.1221 97.296 49.1521 97.962 49.0081 98.634C48.8641 99.306 48.6181 99.93 48.2701 100.506C48.1021 100.77 47.8921 101.01 47.6401 101.226C47.4001 101.43 47.1421 101.598 46.8661 101.73C46.5061 101.898 46.1161 102.012 45.6961 102.072C45.2761 102.144 44.8681 102.162 44.4721 102.126C43.7521 102.09 43.1161 101.91 42.5641 101.586C42.0241 101.262 41.5861 100.848 41.2501 100.344C40.9261 99.84 40.7101 99.27 40.6021 98.634C40.5061 97.986 40.5481 97.326 40.7281 96.654C40.9201 95.934 41.1961 95.352 41.5561 94.908C41.9281 94.452 42.3661 94.104 42.8701 93.864ZM43.4101 96.276C43.2301 96.444 43.0921 96.654 42.9961 96.906C42.9001 97.158 42.8401 97.422 42.8161 97.698C42.7921 97.962 42.8101 98.232 42.8701 98.508C42.9421 98.772 43.0501 99.012 43.1941 99.228C43.3141 99.408 43.5301 99.558 43.8421 99.678C44.1541 99.798 44.4781 99.87 44.8141 99.894C45.1981 99.918 45.5341 99.816 45.8221 99.588C46.1101 99.348 46.3261 99.054 46.4701 98.706C46.6261 98.358 46.6981 97.98 46.6861 97.572C46.6741 97.164 46.5661 96.792 46.3621 96.456C46.2181 96.216 46.0141 96.042 45.7501 95.934C45.4981 95.814 45.2281 95.754 44.9401 95.754C44.6641 95.742 44.3881 95.784 44.1121 95.88C43.8361 95.964 43.6021 96.096 43.4101 96.276ZM60.2885 97.806C60.3125 98.19 60.3245 98.556 60.3245 98.904C60.3245 99.24 60.3125 99.6 60.2885 99.984C60.2885 100.128 60.2885 100.29 60.2885 100.47C60.2885 100.65 60.2765 100.824 60.2525 100.992C60.2285 101.16 60.1865 101.316 60.1265 101.46C60.0665 101.604 59.9765 101.718 59.8565 101.802C59.7125 101.898 59.5505 101.964 59.3705 102C59.1905 102.024 59.0225 102.012 58.8665 101.964C58.7105 101.916 58.5725 101.826 58.4525 101.694C58.3445 101.562 58.2845 101.376 58.2725 101.136C58.2365 100.584 58.2185 100.032 58.2185 99.48C58.2185 99.204 58.2125 98.94 58.2005 98.688C58.2005 98.436 58.2065 98.082 58.2185 97.626C58.2185 97.398 58.2005 97.14 58.1645 96.852C58.1285 96.552 58.0385 96.342 57.8945 96.222C57.7865 96.126 57.6665 96.072 57.5345 96.06C57.4025 96.036 57.2705 96.048 57.1385 96.096C57.0185 96.144 56.9105 96.234 56.8145 96.366C56.7185 96.486 56.6525 96.642 56.6165 96.834C56.6165 96.99 56.6105 97.152 56.5985 97.32C56.5985 97.476 56.6045 97.626 56.6165 97.77C56.6285 98.154 56.6345 98.52 56.6345 98.868C56.6345 99.204 56.6285 99.564 56.6165 99.948C56.6045 100.104 56.5985 100.272 56.5985 100.452C56.6105 100.632 56.6105 100.812 56.5985 100.992C56.5865 101.16 56.5505 101.316 56.4905 101.46C56.4425 101.604 56.3525 101.718 56.2205 101.802C56.0765 101.898 55.9205 101.958 55.7525 101.982C55.5965 101.994 55.4465 101.97 55.3025 101.91C55.1705 101.838 55.0505 101.73 54.9425 101.586C54.8465 101.442 54.7925 101.25 54.7805 101.01C54.7565 100.734 54.7385 100.482 54.7265 100.254C54.7265 100.014 54.7265 99.762 54.7265 99.498C54.7265 99.222 54.7325 98.94 54.7445 98.652C54.7565 98.352 54.7505 98.064 54.7265 97.788C54.7265 97.704 54.7205 97.608 54.7085 97.5C54.7085 97.38 54.7025 97.26 54.6905 97.14C54.6905 97.02 54.6785 96.906 54.6545 96.798C54.6425 96.678 54.6185 96.582 54.5825 96.51C54.4865 96.342 54.3125 96.234 54.0605 96.186C53.8205 96.138 53.6165 96.156 53.4485 96.24C53.2805 96.324 53.1545 96.432 53.0705 96.564C52.9865 96.696 52.9265 96.84 52.8905 96.996C52.8545 97.152 52.8365 97.32 52.8365 97.5C52.8365 97.668 52.8365 97.83 52.8365 97.986C52.8365 98.766 52.8365 99.444 52.8365 100.02C52.8485 100.584 52.7885 101.04 52.6565 101.388C52.5965 101.568 52.4705 101.706 52.2785 101.802C52.0985 101.898 51.9005 101.946 51.6845 101.946C51.4805 101.946 51.2885 101.898 51.1085 101.802C50.9285 101.706 50.8085 101.556 50.7485 101.352C50.7125 101.22 50.6765 101.034 50.6405 100.794C50.6165 100.542 50.5985 100.266 50.5865 99.966C50.5745 99.666 50.5685 99.366 50.5685 99.066C50.5685 98.754 50.5685 98.472 50.5685 98.22V95.628C50.5565 95.352 50.5505 95.052 50.5505 94.728C50.5505 94.404 50.5985 94.11 50.6945 93.846C50.7785 93.618 50.9105 93.474 51.0905 93.414C51.2705 93.342 51.4565 93.312 51.6485 93.324C51.8645 93.324 52.0325 93.384 52.1525 93.504C52.2845 93.612 52.3805 93.75 52.4405 93.918C52.5005 94.074 52.5365 94.254 52.5485 94.458C52.5605 94.65 52.5725 94.836 52.5845 95.016C52.7165 94.716 52.8725 94.47 53.0525 94.278C53.2445 94.074 53.5145 93.942 53.8625 93.882C54.7505 93.714 55.4585 93.942 55.9865 94.566C56.2265 94.326 56.5325 94.128 56.9045 93.972C57.1925 93.864 57.4865 93.816 57.7865 93.828C58.0865 93.828 58.3685 93.882 58.6325 93.99C58.9085 94.098 59.1545 94.254 59.3705 94.458C59.5985 94.662 59.7785 94.908 59.9105 95.196C60.0905 95.58 60.1925 96.006 60.2165 96.474C60.2405 96.942 60.2645 97.386 60.2885 97.806ZM69.1629 97.716C69.1389 98.112 69.1149 98.514 69.0909 98.922C69.0669 99.318 69.0009 99.702 68.8929 100.074C68.7969 100.446 68.6409 100.782 68.4249 101.082C68.2209 101.382 67.9269 101.622 67.5429 101.802C67.2069 101.97 66.8469 102.084 66.4629 102.144C66.0789 102.216 65.6949 102.246 65.3109 102.234C64.9269 102.222 64.5549 102.162 64.1949 102.054C63.8349 101.958 63.5109 101.82 63.2229 101.64C62.9349 101.46 62.7009 101.226 62.5209 100.938C62.3409 100.65 62.1969 100.338 62.0889 100.002C61.9929 99.666 61.9269 99.318 61.8909 98.958C61.8549 98.598 61.8309 98.262 61.8189 97.95C61.7709 97.122 61.7709 96.306 61.8189 95.502C61.8189 95.346 61.8189 95.172 61.8189 94.98C61.8189 94.776 61.8309 94.578 61.8549 94.386C61.8909 94.194 61.9449 94.02 62.0169 93.864C62.0889 93.696 62.2089 93.57 62.3769 93.486C62.7369 93.294 63.0669 93.282 63.3669 93.45C63.6789 93.618 63.8649 93.966 63.9249 94.494C63.9609 94.77 63.9729 95.076 63.9609 95.412C63.9609 95.748 63.9729 96.054 63.9969 96.33C64.0089 96.738 64.0209 97.182 64.0329 97.662C64.0449 98.13 64.1109 98.55 64.2309 98.922C64.3629 99.294 64.5729 99.576 64.8609 99.768C65.1609 99.948 65.6049 99.954 66.1929 99.786C66.4689 99.702 66.6489 99.492 66.7329 99.156C66.8289 98.82 66.8769 98.322 66.8769 97.662C66.8769 97.374 66.8709 97.056 66.8589 96.708C66.8469 96.36 66.8409 96.018 66.8409 95.682C66.8409 95.334 66.8469 95.016 66.8589 94.728C66.8829 94.428 66.9189 94.2 66.9669 94.044C67.0269 93.828 67.1529 93.666 67.3449 93.558C67.5369 93.45 67.7409 93.396 67.9569 93.396C68.1729 93.384 68.3769 93.426 68.5689 93.522C68.7609 93.618 68.8929 93.774 68.9649 93.99C69.0369 94.182 69.0849 94.428 69.1089 94.728C69.1449 95.016 69.1689 95.334 69.1809 95.682C69.1929 96.018 69.1929 96.366 69.1809 96.726C69.1809 97.074 69.1749 97.404 69.1629 97.716ZM71.0466 95.574C71.0466 95.298 71.0406 95.004 71.0286 94.692C71.0286 94.38 71.0826 94.098 71.1906 93.846C71.2866 93.618 71.4426 93.456 71.6586 93.36C71.8866 93.252 72.1086 93.228 72.3246 93.288C72.5406 93.324 72.7086 93.39 72.8286 93.486C72.9486 93.582 73.0326 93.696 73.0806 93.828C73.1406 93.948 73.1766 94.092 73.1886 94.26C73.2006 94.416 73.2126 94.572 73.2246 94.728C73.3446 94.512 73.4946 94.338 73.6746 94.206C73.8546 94.074 74.0406 93.966 74.2326 93.882C74.4246 93.798 74.6046 93.738 74.7726 93.702C74.9526 93.666 75.0906 93.648 75.1866 93.648C75.6426 93.648 76.0926 93.75 76.5366 93.954C76.9926 94.146 77.3706 94.422 77.6706 94.782C77.8386 94.998 77.9646 95.226 78.0486 95.466C78.1446 95.694 78.2106 95.934 78.2466 96.186C78.2946 96.438 78.3246 96.696 78.3366 96.96C78.3486 97.212 78.3606 97.47 78.3726 97.734C78.4326 98.502 78.4326 99.264 78.3726 100.02C78.3606 100.176 78.3546 100.356 78.3546 100.56C78.3546 100.764 78.3366 100.968 78.3006 101.172C78.2766 101.364 78.2226 101.538 78.1386 101.694C78.0666 101.838 77.9406 101.928 77.7606 101.964C77.5086 102.024 77.2986 102.036 77.1306 102C76.9746 101.976 76.8486 101.922 76.7526 101.838C76.6566 101.754 76.5846 101.646 76.5366 101.514C76.4886 101.382 76.4466 101.232 76.4106 101.064C76.3866 100.932 76.3626 100.782 76.3386 100.614C76.3266 100.434 76.3146 100.254 76.3026 100.074C76.3026 99.894 76.2966 99.72 76.2846 99.552C76.2846 99.372 76.2846 99.21 76.2846 99.066C76.2846 98.838 76.2786 98.586 76.2666 98.31C76.2546 98.034 76.2546 97.776 76.2666 97.536C76.2666 96.972 76.1166 96.546 75.8166 96.258C75.5286 95.958 75.1326 95.832 74.6286 95.88C74.2446 95.928 73.9086 96.084 73.6206 96.348C73.3326 96.6 73.1946 96.93 73.2066 97.338C73.2066 97.494 73.2066 97.638 73.2066 97.77C73.2066 97.902 73.2006 98.034 73.1886 98.166C73.1886 98.298 73.1886 98.442 73.1886 98.598C73.1886 98.754 73.1886 98.928 73.1886 99.12C73.1886 99.516 73.1886 99.936 73.1886 100.38C73.1886 100.812 73.1346 101.166 73.0266 101.442C72.9306 101.73 72.7686 101.928 72.5406 102.036C72.3126 102.144 72.0426 102.114 71.7306 101.946C71.5986 101.874 71.4906 101.778 71.4066 101.658C71.3346 101.526 71.2746 101.388 71.2266 101.244C71.1906 101.1 71.1666 100.956 71.1546 100.812C71.1426 100.656 71.1306 100.512 71.1186 100.38C71.0826 99.984 71.0586 99.618 71.0466 99.282C71.0466 98.934 71.0466 98.562 71.0466 98.166V95.574ZM82.1384 95.178C82.1384 95.514 82.1384 95.892 82.1384 96.312C82.1504 96.732 82.1564 97.17 82.1564 97.626C82.1564 98.07 82.1564 98.514 82.1564 98.958C82.1564 99.39 82.1504 99.792 82.1384 100.164C82.1264 100.344 82.1084 100.542 82.0844 100.758C82.0604 100.962 82.0124 101.154 81.9404 101.334C81.8684 101.514 81.7544 101.664 81.5984 101.784C81.4544 101.892 81.2564 101.94 81.0044 101.928C80.6324 101.904 80.3624 101.742 80.1944 101.442C80.0384 101.142 79.9484 100.722 79.9244 100.182C79.9244 99.906 79.9184 99.588 79.9064 99.228C79.9064 98.868 79.9004 98.502 79.8884 98.13C79.8884 97.758 79.8884 97.398 79.8884 97.05C79.8884 96.69 79.8884 96.366 79.8884 96.078C79.8884 95.91 79.8824 95.706 79.8704 95.466C79.8704 95.226 79.8764 94.98 79.8884 94.728C79.9004 94.476 79.9304 94.236 79.9784 94.008C80.0264 93.768 80.1044 93.57 80.2124 93.414C80.2964 93.318 80.4164 93.246 80.5724 93.198C80.7284 93.138 80.8904 93.108 81.0584 93.108C81.2384 93.108 81.4064 93.138 81.5624 93.198C81.7304 93.258 81.8504 93.342 81.9224 93.45C81.9704 93.522 82.0064 93.624 82.0304 93.756C82.0544 93.888 82.0724 94.038 82.0844 94.206C82.1084 94.362 82.1204 94.53 82.1204 94.71C82.1324 94.878 82.1384 95.034 82.1384 95.178ZM81.4544 91.542C81.0824 91.638 80.7704 91.602 80.5184 91.434C80.2784 91.254 80.1284 90.99 80.0684 90.642C80.0204 90.39 80.0384 90.168 80.1224 89.976C80.2064 89.784 80.3324 89.64 80.5004 89.544C80.6684 89.436 80.8604 89.388 81.0764 89.4C81.2924 89.412 81.5084 89.496 81.7244 89.652C81.9284 89.796 82.0724 89.964 82.1564 90.156C82.2524 90.348 82.2824 90.534 82.2464 90.714C82.2224 90.894 82.1444 91.062 82.0124 91.218C81.8804 91.362 81.6944 91.47 81.4544 91.542ZM90.416 95.07C90.512 95.238 90.56 95.418 90.56 95.61C90.572 95.802 90.53 95.982 90.434 96.15C90.326 96.366 90.17 96.516 89.966 96.6C89.774 96.672 89.558 96.678 89.318 96.618C89.21 96.594 89.114 96.552 89.03 96.492C88.946 96.432 88.856 96.372 88.76 96.312C88.676 96.24 88.574 96.174 88.454 96.114C88.346 96.054 88.202 96.012 88.022 95.988C87.842 95.964 87.644 95.964 87.428 95.988C87.224 96.012 87.038 96.06 86.87 96.132C86.606 96.264 86.396 96.468 86.24 96.744C86.084 97.008 85.982 97.296 85.934 97.608C85.886 97.908 85.892 98.214 85.952 98.526C86.024 98.838 86.156 99.102 86.348 99.318C86.492 99.486 86.678 99.624 86.906 99.732C87.146 99.84 87.374 99.906 87.59 99.93C87.794 99.954 87.998 99.954 88.202 99.93C88.406 99.894 88.604 99.846 88.796 99.786C88.94 99.726 89.102 99.648 89.282 99.552C89.462 99.444 89.636 99.378 89.804 99.354C90.02 99.354 90.188 99.414 90.308 99.534C90.428 99.642 90.512 99.78 90.56 99.948C90.608 100.104 90.614 100.272 90.578 100.452C90.554 100.632 90.488 100.788 90.38 100.92C90.236 101.1 90.032 101.274 89.768 101.442C89.504 101.598 89.252 101.712 89.012 101.784C88.724 101.88 88.4 101.934 88.04 101.946C87.692 101.958 87.362 101.946 87.05 101.91C86.906 101.886 86.756 101.856 86.6 101.82C86.444 101.784 86.294 101.742 86.15 101.694C85.622 101.502 85.178 101.232 84.818 100.884C84.47 100.524 84.2 100.122 84.008 99.678C83.828 99.234 83.726 98.76 83.702 98.256C83.678 97.752 83.738 97.254 83.882 96.762C84.014 96.294 84.176 95.898 84.368 95.574C84.572 95.25 84.806 94.986 85.07 94.782C85.346 94.566 85.652 94.398 85.988 94.278C86.324 94.146 86.696 94.032 87.104 93.936C87.524 93.852 87.968 93.852 88.436 93.936C88.904 94.02 89.324 94.176 89.696 94.404C89.984 94.56 90.224 94.782 90.416 95.07ZM94.3565 93.864C94.7525 93.672 95.1665 93.534 95.5985 93.45C96.0305 93.366 96.4565 93.348 96.8765 93.396C97.3085 93.444 97.7225 93.558 98.1185 93.738C98.5265 93.918 98.8985 94.17 99.2345 94.494C99.5105 94.77 99.7505 95.106 99.9545 95.502C100.158 95.886 100.308 96.264 100.404 96.636C100.608 97.296 100.638 97.962 100.494 98.634C100.35 99.306 100.104 99.93 99.7565 100.506C99.5885 100.77 99.3785 101.01 99.1265 101.226C98.8865 101.43 98.6285 101.598 98.3525 101.73C97.9925 101.898 97.6025 102.012 97.1825 102.072C96.7625 102.144 96.3545 102.162 95.9585 102.126C95.2385 102.09 94.6025 101.91 94.0505 101.586C93.5105 101.262 93.0725 100.848 92.7365 100.344C92.4125 99.84 92.1965 99.27 92.0885 98.634C91.9925 97.986 92.0345 97.326 92.2145 96.654C92.4065 95.934 92.6825 95.352 93.0425 94.908C93.4145 94.452 93.8525 94.104 94.3565 93.864ZM94.8965 96.276C94.7165 96.444 94.5785 96.654 94.4825 96.906C94.3865 97.158 94.3265 97.422 94.3025 97.698C94.2785 97.962 94.2965 98.232 94.3565 98.508C94.4285 98.772 94.5365 99.012 94.6805 99.228C94.8005 99.408 95.0165 99.558 95.3285 99.678C95.6405 99.798 95.9645 99.87 96.3005 99.894C96.6845 99.918 97.0205 99.816 97.3085 99.588C97.5965 99.348 97.8125 99.054 97.9565 98.706C98.1125 98.358 98.1845 97.98 98.1725 97.572C98.1605 97.164 98.0525 96.792 97.8485 96.456C97.7045 96.216 97.5005 96.042 97.2365 95.934C96.9845 95.814 96.7145 95.754 96.4265 95.754C96.1505 95.742 95.8745 95.784 95.5985 95.88C95.3225 95.964 95.0885 96.096 94.8965 96.276Z" fill="white"/>
<path d="M63.0076 50.6003C63.0076 51.1845 62.8627 51.948 63.658 51.9012C64.1786 51.8706 64.5394 50.759 64.182 50.4016C63.2083 49.4279 61.7889 51.9012 63.8206 51.9012" stroke="white" stroke-width="3" stroke-linecap="round"/>
<path d="M63.8658 44.1115C62.5829 44.1115 61.503 44.0678 60.3008 44.5431C59.4598 44.8756 58.6088 45.1825 57.8549 45.6941C57.223 46.1229 56.6046 46.7151 56.0963 47.2768C55.429 48.0144 55.371 48.8203 55.2011 49.7548C54.8483 51.6948 55.3994 53.7846 56.7837 55.2222C58.4093 56.9103 61.3365 58.0228 63.722 58.0678C65.8503 58.108 67.945 58.1595 69.701 56.8049C71.6546 55.2978 71.3476 52.5291 71.3476 50.3622C71.3476 48.5256 71.3095 46.9872 69.7649 45.806C68.2628 44.6574 66.207 44.1115 64.2975 44.1115" stroke="white" stroke-width="3" stroke-linecap="round"/>
<path d="M65.3046 35.4787C64.0603 35.4787 62.816 35.4787 61.5717 35.4787C59.7991 35.4787 58.1947 35.9212 56.464 36.1981C54.5204 36.5091 53.3008 37.6999 51.8119 38.788C50.3967 39.8221 49.4541 41.5692 48.6865 43.1044C47.7108 45.0559 47.0419 47.1943 46.88 49.3791C46.6145 52.964 46.591 57.1954 49.334 59.9383C50.5463 61.1507 52.0769 62.9149 53.7223 63.4634C56.2934 64.3204 58.7413 64.4273 61.4119 64.6943C64.3716 64.9903 67.4185 64.8302 70.4044 64.8302C71.3099 64.8302 72.4162 64.8533 73.298 64.6064C73.901 64.4375 74.5757 64.4057 75.1204 64.0789C75.7898 63.6773 76.2128 63.0545 76.6791 62.4482C78.2089 60.4595 79.6397 58.7886 80.1562 56.3093C80.4534 54.8829 80.5559 53.5945 80.5559 52.1368C80.5559 50.7782 80.6717 49.4457 80.2681 48.1402C79.9264 47.0346 79.7381 45.9682 79.3249 44.8789C78.8607 43.6551 78.3088 42.4593 77.4545 41.4497C76.7961 40.6717 76.3099 39.8409 75.6 39.0837C75.0457 38.4925 74.1531 37.9603 73.4338 37.573C70.9464 36.2336 68.1999 35.3348 65.3046 35.3348" stroke="white" stroke-width="3" stroke-linecap="round"/>
<path d="M59.5248 28.5725C57.5676 28.5725 55.4492 28.3634 53.5523 28.9394C51.3699 29.6022 49.2751 30.6921 47.436 32.0266C46.7236 32.5436 45.8999 32.9769 45.2773 33.5982C44.4278 34.4457 43.6464 35.2992 42.8307 36.1828C41.2065 37.9422 40.5001 40.6204 39.6646 42.788C37.427 48.5928 37.8212 55.5141 40.8239 60.9442C42.2058 63.4433 43.8816 65.4176 46.1327 67.1824C48.6048 69.1203 51.6124 70.0421 54.6157 70.7163C56.475 71.1337 58.2803 71.0753 60.1804 71.0753C62.9324 71.0753 65.7961 71.2965 68.5274 70.9317C73.1826 70.31 77.9866 69.5908 82.3272 67.7408C85.6849 66.3097 87.8151 63.5974 89.1711 60.29C90.9799 55.8785 90.1592 51.6582 89.0991 47.1834C88.2935 43.7824 86.936 40.8777 84.6778 38.1931C82.4018 35.4874 79.2409 34.2911 76.1069 32.8802C73.0453 31.5019 69.9895 30.0047 66.6885 29.2904C64.7863 28.8788 62.8269 28.8023 60.892 28.7081C59.7919 28.6546 58.2157 28.6374 57.2221 28.1417" stroke="white" stroke-width="3" stroke-linecap="round"/>
<path d="M63.2509 27.3278C57.9701 27.3278 53.5471 28.2136 48.5011 29.5493C46.6284 30.0451 44.5898 30.8082 42.9107 31.7527C40.6587 33.0195 39.374 34.8847 37.3568 36.3415C35.2215 37.8837 33.5509 40.7161 32.4402 43.0609C31.1442 45.7968 30.3733 48.7297 30.164 51.7651C29.777 57.3762 30.0329 62.9675 31.384 68.3722C32.4919 72.8037 36.1577 75.2834 39.3234 78.1326C42.9222 81.3715 47.9305 81.9812 52.1248 83.8686C54.4881 84.9321 57.4562 84.7015 59.9731 85.0887C62.9257 85.5429 65.9807 85.3436 68.9687 85.3436C72.1825 85.3436 75.5213 84.2519 78.5834 83.377C81.7983 82.4584 85.1612 81.5995 88.1616 80.0992C95.684 76.338 99.6337 67.5655 99.6337 59.4495C99.6337 55.269 99.5506 51.8047 98.3226 47.8136C97.9052 46.4569 97.3028 44.4468 96.356 43.3887C95.2897 42.1969 93.7845 41.1855 93.0054 39.7832C92.4805 38.8383 91.0841 37.7891 90.2922 36.9971C89.3717 36.0766 87.7733 34.9794 86.5228 34.6116C82.7833 33.5118 79.6968 30.4543 75.8701 29.604C71.6863 28.6742 67.8012 27 63.5787 27" stroke="white" stroke-width="3" stroke-linecap="round"/>
</svg>
