<svg width="131" height="129" viewBox="0 0 131 129" fill="none" xmlns="http://www.w3.org/2000/svg">
<path d="M0 12C0 5.37258 5.37258 0 12 0H119C125.627 0 131 5.37258 131 12V117C131 123.627 125.627 129 119 129H12C5.37258 129 0 123.627 0 117V12Z" fill="#C4D600"/>
<path d="M37.2747 90.39C37.7307 90.81 38.0667 91.314 38.2827 91.902C38.4987 92.478 38.5827 93.054 38.5347 93.63C38.4867 94.182 38.3127 94.692 38.0127 95.16C37.7127 95.616 37.2567 95.964 36.6447 96.204C36.1647 96.408 35.6907 96.552 35.2227 96.636C34.7547 96.72 34.2387 96.786 33.6747 96.834C33.4227 96.858 33.2067 96.876 33.0267 96.888C32.8587 96.888 32.6607 96.894 32.4327 96.906C32.3847 96.906 32.3007 96.906 32.1807 96.906C32.0727 96.906 31.9947 96.912 31.9467 96.924V100.65C31.9107 100.878 31.8627 101.112 31.8027 101.352C31.7547 101.592 31.6167 101.778 31.3887 101.91C31.2567 101.982 31.0947 102.024 30.9027 102.036C30.7107 102.048 30.5367 102.042 30.3807 102.018C30.2127 101.994 30.0687 101.952 29.9487 101.892C29.8407 101.82 29.7507 101.7 29.6787 101.532C29.6307 101.424 29.5827 101.304 29.5347 101.172C29.4987 101.028 29.4807 100.854 29.4807 100.65V90.696C29.4807 90.612 29.4867 90.534 29.4987 90.462C29.5107 90.39 29.5227 90.318 29.5347 90.246C29.5587 90.186 29.5767 90.12 29.5887 90.048C29.6007 89.976 29.6187 89.91 29.6427 89.85C29.6667 89.79 29.6907 89.736 29.7147 89.688C29.7507 89.64 29.7927 89.598 29.8407 89.562C29.9007 89.502 29.9907 89.448 30.1107 89.4C30.2427 89.352 30.4347 89.328 30.6867 89.328H30.7227C31.0947 89.304 31.5087 89.286 31.9647 89.274C32.4207 89.25 32.7987 89.256 33.0987 89.292C33.2667 89.316 33.4227 89.334 33.5667 89.346C33.7107 89.346 33.8487 89.352 33.9807 89.364C34.1247 89.376 34.2687 89.388 34.4127 89.4C34.5567 89.412 34.7007 89.43 34.8447 89.454C34.9647 89.478 35.0727 89.496 35.1687 89.508C35.2767 89.52 35.3847 89.538 35.4927 89.562C35.5887 89.586 35.6907 89.61 35.7987 89.634C35.9187 89.658 36.0267 89.7 36.1227 89.76C36.3747 89.832 36.5847 89.922 36.7527 90.03C36.9207 90.138 37.0947 90.258 37.2747 90.39ZM36.1947 93.36C36.2067 93.072 36.1467 92.82 36.0147 92.604C35.8947 92.388 35.7207 92.208 35.4927 92.064C35.2647 91.92 35.0067 91.806 34.7187 91.722C34.4307 91.638 34.1427 91.578 33.8547 91.542C33.7827 91.542 33.6807 91.542 33.5487 91.542C33.4287 91.53 33.2967 91.524 33.1527 91.524C33.0087 91.512 32.8707 91.506 32.7387 91.506C32.6187 91.494 32.5227 91.488 32.4507 91.488C32.3907 91.476 32.3187 91.47 32.2347 91.47C32.1507 91.47 32.0547 91.47 31.9467 91.47C31.9587 91.842 31.9647 92.202 31.9647 92.55C31.9647 92.886 31.9647 93.252 31.9647 93.648C31.9527 93.864 31.9467 94.08 31.9467 94.296C31.9467 94.512 31.9467 94.722 31.9467 94.926L33.0627 94.908C33.3507 94.908 33.6687 94.89 34.0167 94.854C34.3647 94.818 34.6947 94.746 35.0067 94.638C35.3187 94.53 35.5827 94.374 35.7987 94.17C36.0267 93.966 36.1587 93.696 36.1947 93.36ZM44.8845 99.534C45.0285 99.498 45.1725 99.474 45.3165 99.462C45.4725 99.45 45.6105 99.468 45.7305 99.516C45.8625 99.564 45.9705 99.648 46.0545 99.768C46.1385 99.876 46.1805 100.032 46.1805 100.236C46.1805 100.38 46.1445 100.518 46.0725 100.65C46.0005 100.782 45.9105 100.902 45.8025 101.01C45.6945 101.118 45.5745 101.214 45.4425 101.298C45.3105 101.37 45.1845 101.43 45.0645 101.478C44.7165 101.634 44.3145 101.754 43.8585 101.838C43.4145 101.922 42.9525 101.952 42.4725 101.928C41.8245 101.904 41.2005 101.778 40.6005 101.55C40.0125 101.31 39.5505 100.92 39.2145 100.38C38.9025 99.852 38.7165 99.264 38.6565 98.616C38.5965 97.968 38.6265 97.356 38.7465 96.78C38.8785 96.084 39.1005 95.52 39.4125 95.088C39.7365 94.644 40.1205 94.29 40.5645 94.026C41.1045 93.714 41.7105 93.552 42.3825 93.54C43.0545 93.528 43.6965 93.66 44.3085 93.936C44.7165 94.116 45.0825 94.362 45.4065 94.674C45.7305 94.974 45.9765 95.34 46.1445 95.772C46.1925 95.88 46.2285 96.012 46.2525 96.168C46.2885 96.324 46.3125 96.492 46.3245 96.672C46.3365 96.84 46.3365 97.008 46.3245 97.176C46.3125 97.344 46.2825 97.494 46.2345 97.626C46.1625 97.842 46.0725 98.01 45.9645 98.13C45.8565 98.25 45.7185 98.34 45.5505 98.4C45.3825 98.46 45.1785 98.502 44.9385 98.526C44.7105 98.538 44.4345 98.55 44.1105 98.562C43.8225 98.574 43.5525 98.58 43.3005 98.58C43.0485 98.58 42.7905 98.58 42.5265 98.58C42.2625 98.568 41.9865 98.562 41.6985 98.562C41.4225 98.55 41.1105 98.538 40.7625 98.526C40.7265 98.766 40.7565 98.976 40.8525 99.156C40.9605 99.324 41.1045 99.468 41.2845 99.588C41.4645 99.696 41.6685 99.78 41.8965 99.84C42.1245 99.9 42.3465 99.936 42.5625 99.948C42.9705 99.972 43.3605 99.942 43.7325 99.858C44.1045 99.762 44.4885 99.654 44.8845 99.534ZM44.1105 96.042C43.8825 95.778 43.6425 95.586 43.3905 95.466C43.1985 95.382 42.9945 95.346 42.7785 95.358C42.5745 95.358 42.3765 95.388 42.1845 95.448C41.8365 95.532 41.5425 95.712 41.3025 95.988C41.2785 96.012 41.2365 96.072 41.1765 96.168C41.1165 96.252 41.0565 96.342 40.9965 96.438C40.9485 96.534 40.9125 96.624 40.8885 96.708C40.8645 96.792 40.8765 96.834 40.9245 96.834H44.4525C44.4405 96.666 44.4105 96.528 44.3625 96.42C44.3145 96.3 44.2305 96.174 44.1105 96.042ZM49.6696 100.776C48.9856 100.476 48.4936 100.044 48.1936 99.48C47.9056 98.916 47.7736 98.31 47.7976 97.662C47.8216 97.11 47.9476 96.57 48.1756 96.042C48.4156 95.514 48.7276 95.058 49.1116 94.674C49.2796 94.506 49.4476 94.362 49.6156 94.242C49.7956 94.11 49.9876 94.002 50.1916 93.918C50.3356 93.858 50.5216 93.792 50.7496 93.72C50.9896 93.636 51.2476 93.558 51.5236 93.486C51.8116 93.414 52.1116 93.354 52.4236 93.306C52.7356 93.258 53.0356 93.234 53.3236 93.234C53.7436 93.222 54.1156 93.276 54.4396 93.396C54.7636 93.504 54.9796 93.708 55.0876 94.008L55.1956 94.44C55.2196 94.524 55.2316 94.608 55.2316 94.692C55.2316 94.764 55.2316 94.836 55.2316 94.908V104.934C55.2316 104.994 55.2256 105.048 55.2136 105.096C55.2136 105.156 55.2076 105.216 55.1956 105.276C55.1476 105.396 55.1056 105.534 55.0696 105.69C54.9976 105.846 54.9136 105.96 54.8176 106.032C54.7096 106.14 54.5596 106.2 54.3676 106.212C54.0436 106.308 53.7496 106.278 53.4856 106.122C53.3416 106.014 53.2336 105.888 53.1616 105.744C53.1256 105.708 53.1076 105.672 53.1076 105.636C53.0956 105.624 53.0836 105.606 53.0716 105.582C53.0716 105.57 53.0656 105.552 53.0536 105.528C53.0296 105.456 53.0056 105.384 52.9816 105.312C52.9696 105.252 52.9636 105.186 52.9636 105.114C52.9396 104.958 52.9216 104.796 52.9096 104.628C52.9096 104.472 52.9096 104.31 52.9096 104.142V101.442C52.8736 101.43 52.8136 101.424 52.7296 101.424C52.4896 101.388 52.2016 101.358 51.8656 101.334C51.5416 101.298 51.2596 101.25 51.0196 101.19C50.5756 101.106 50.1256 100.968 49.6696 100.776ZM52.4416 95.844C52.1536 95.88 51.8656 95.934 51.5776 96.006C51.2896 96.066 51.0316 96.168 50.8036 96.312C50.5756 96.444 50.3956 96.63 50.2636 96.87C50.1436 97.098 50.1016 97.41 50.1376 97.806C50.1736 98.106 50.2816 98.346 50.4616 98.526C50.6536 98.706 50.8816 98.85 51.1456 98.958C51.4216 99.066 51.7096 99.144 52.0096 99.192C52.3216 99.24 52.6216 99.27 52.9096 99.282C52.8976 98.706 52.8916 98.124 52.8916 97.536C52.8916 96.948 52.8976 96.378 52.9096 95.826C52.8136 95.826 52.7236 95.826 52.6396 95.826C52.5556 95.826 52.4896 95.832 52.4416 95.844ZM64.0721 97.716C64.0481 98.112 64.0241 98.514 64.0001 98.922C63.9761 99.318 63.9101 99.702 63.8021 100.074C63.7061 100.446 63.5501 100.782 63.3341 101.082C63.1301 101.382 62.8361 101.622 62.4521 101.802C62.1161 101.97 61.7561 102.084 61.3721 102.144C60.9881 102.216 60.6041 102.246 60.2201 102.234C59.8361 102.222 59.4641 102.162 59.1041 102.054C58.7441 101.958 58.4201 101.82 58.1321 101.64C57.8441 101.46 57.6101 101.226 57.4301 100.938C57.2501 100.65 57.1061 100.338 56.9981 100.002C56.9021 99.666 56.8361 99.318 56.8001 98.958C56.7641 98.598 56.7401 98.262 56.7281 97.95C56.6801 97.122 56.6801 96.306 56.7281 95.502C56.7281 95.346 56.7281 95.172 56.7281 94.98C56.7281 94.776 56.7401 94.578 56.7641 94.386C56.8001 94.194 56.8541 94.02 56.9261 93.864C56.9981 93.696 57.1181 93.57 57.2861 93.486C57.6461 93.294 57.9761 93.282 58.2761 93.45C58.5881 93.618 58.7741 93.966 58.8341 94.494C58.8701 94.77 58.8821 95.076 58.8701 95.412C58.8701 95.748 58.8821 96.054 58.9061 96.33C58.9181 96.738 58.9301 97.182 58.9421 97.662C58.9541 98.13 59.0201 98.55 59.1401 98.922C59.2721 99.294 59.4821 99.576 59.7701 99.768C60.0701 99.948 60.5141 99.954 61.1021 99.786C61.3781 99.702 61.5581 99.492 61.6421 99.156C61.7381 98.82 61.7861 98.322 61.7861 97.662C61.7861 97.374 61.7801 97.056 61.7681 96.708C61.7561 96.36 61.7501 96.018 61.7501 95.682C61.7501 95.334 61.7561 95.016 61.7681 94.728C61.7921 94.428 61.8281 94.2 61.8761 94.044C61.9361 93.828 62.0621 93.666 62.2541 93.558C62.4461 93.45 62.6501 93.396 62.8661 93.396C63.0821 93.384 63.2861 93.426 63.4781 93.522C63.6701 93.618 63.8021 93.774 63.8741 93.99C63.9461 94.182 63.9941 94.428 64.0181 94.728C64.0541 95.016 64.0781 95.334 64.0901 95.682C64.1021 96.018 64.1021 96.366 64.0901 96.726C64.0901 97.074 64.0841 97.404 64.0721 97.716ZM71.7791 99.534C71.9231 99.498 72.0671 99.474 72.2111 99.462C72.3671 99.45 72.5051 99.468 72.6251 99.516C72.7571 99.564 72.8651 99.648 72.9491 99.768C73.0331 99.876 73.0751 100.032 73.0751 100.236C73.0751 100.38 73.0391 100.518 72.9671 100.65C72.8951 100.782 72.8051 100.902 72.6971 101.01C72.5891 101.118 72.4691 101.214 72.3371 101.298C72.2051 101.37 72.0791 101.43 71.9591 101.478C71.6111 101.634 71.2091 101.754 70.7531 101.838C70.3091 101.922 69.8471 101.952 69.3671 101.928C68.7191 101.904 68.0951 101.778 67.4951 101.55C66.9071 101.31 66.4451 100.92 66.1091 100.38C65.7971 99.852 65.6111 99.264 65.5511 98.616C65.4911 97.968 65.5211 97.356 65.6411 96.78C65.7731 96.084 65.9951 95.52 66.3071 95.088C66.6311 94.644 67.0151 94.29 67.4591 94.026C67.9991 93.714 68.6051 93.552 69.2771 93.54C69.9491 93.528 70.5911 93.66 71.2031 93.936C71.6111 94.116 71.9771 94.362 72.3011 94.674C72.6251 94.974 72.8711 95.34 73.0391 95.772C73.0871 95.88 73.1231 96.012 73.1471 96.168C73.1831 96.324 73.2071 96.492 73.2191 96.672C73.2311 96.84 73.2311 97.008 73.2191 97.176C73.2071 97.344 73.1771 97.494 73.1291 97.626C73.0571 97.842 72.9671 98.01 72.8591 98.13C72.7511 98.25 72.6131 98.34 72.4451 98.4C72.2771 98.46 72.0731 98.502 71.8331 98.526C71.6051 98.538 71.3291 98.55 71.0051 98.562C70.7171 98.574 70.4471 98.58 70.1951 98.58C69.9431 98.58 69.6851 98.58 69.4211 98.58C69.1571 98.568 68.8811 98.562 68.5931 98.562C68.3171 98.55 68.0051 98.538 67.6571 98.526C67.6211 98.766 67.6511 98.976 67.7471 99.156C67.8551 99.324 67.9991 99.468 68.1791 99.588C68.3591 99.696 68.5631 99.78 68.7911 99.84C69.0191 99.9 69.2411 99.936 69.4571 99.948C69.8651 99.972 70.2551 99.942 70.6271 99.858C70.9991 99.762 71.3831 99.654 71.7791 99.534ZM71.0051 96.042C70.7771 95.778 70.5371 95.586 70.2851 95.466C70.0931 95.382 69.8891 95.346 69.6731 95.358C69.4691 95.358 69.2711 95.388 69.0791 95.448C68.7311 95.532 68.4371 95.712 68.1971 95.988C68.1731 96.012 68.1311 96.072 68.0711 96.168C68.0111 96.252 67.9511 96.342 67.8911 96.438C67.8431 96.534 67.8071 96.624 67.7831 96.708C67.7591 96.792 67.7711 96.834 67.8191 96.834H71.3471C71.3351 96.666 71.3051 96.528 71.2571 96.42C71.2091 96.3 71.1251 96.174 71.0051 96.042ZM80.1281 92.172C81.2801 92.172 82.1501 92.454 82.7381 93.018C83.3261 93.57 83.6201 94.47 83.6201 95.718V102H82.0541V95.826C82.0541 95.046 81.8801 94.464 81.5321 94.08C81.1841 93.696 80.6381 93.504 79.8941 93.504C78.8261 93.504 78.0881 93.804 77.6801 94.404C77.2721 95.004 77.0681 95.868 77.0681 96.996V102H75.4841V92.352H76.7621L76.9961 93.666H77.0861C77.3021 93.33 77.5661 93.054 77.8781 92.838C78.2021 92.61 78.5561 92.442 78.9401 92.334C79.3241 92.226 79.7201 92.172 80.1281 92.172ZM76.2221 91.092C76.2581 90.732 76.3241 90.414 76.4201 90.138C76.5281 89.85 76.6661 89.61 76.8341 89.418C77.0021 89.214 77.2001 89.058 77.4281 88.95C77.6561 88.842 77.9141 88.788 78.2021 88.788C78.4661 88.788 78.7181 88.842 78.9581 88.95C79.2101 89.046 79.4501 89.166 79.6781 89.31C79.9061 89.442 80.1221 89.562 80.3261 89.67C80.5421 89.766 80.7461 89.814 80.9381 89.814C81.2141 89.814 81.4241 89.73 81.5681 89.562C81.7241 89.382 81.8441 89.118 81.9281 88.77H82.8281C82.7561 89.466 82.5521 90.024 82.2161 90.444C81.8801 90.864 81.4301 91.074 80.8661 91.074C80.6141 91.074 80.3681 91.026 80.1281 90.93C79.8881 90.822 79.6481 90.702 79.4081 90.57C79.1801 90.426 78.9581 90.306 78.7421 90.21C78.5381 90.102 78.3341 90.048 78.1301 90.048C77.8421 90.048 77.6261 90.138 77.4821 90.318C77.3381 90.486 77.2241 90.744 77.1401 91.092H76.2221ZM88.1231 93.864C88.5191 93.672 88.9331 93.534 89.3651 93.45C89.7971 93.366 90.2231 93.348 90.6431 93.396C91.0751 93.444 91.4891 93.558 91.8851 93.738C92.2931 93.918 92.6651 94.17 93.0011 94.494C93.2771 94.77 93.5171 95.106 93.7211 95.502C93.9251 95.886 94.0751 96.264 94.1711 96.636C94.3751 97.296 94.4051 97.962 94.2611 98.634C94.1171 99.306 93.8711 99.93 93.5231 100.506C93.3551 100.77 93.1451 101.01 92.8931 101.226C92.6531 101.43 92.3951 101.598 92.1191 101.73C91.7591 101.898 91.3691 102.012 90.9491 102.072C90.5291 102.144 90.1211 102.162 89.7251 102.126C89.0051 102.09 88.3691 101.91 87.8171 101.586C87.2771 101.262 86.8391 100.848 86.5031 100.344C86.1791 99.84 85.9631 99.27 85.8551 98.634C85.7591 97.986 85.8011 97.326 85.9811 96.654C86.1731 95.934 86.4491 95.352 86.8091 94.908C87.1811 94.452 87.6191 94.104 88.1231 93.864ZM88.6631 96.276C88.4831 96.444 88.3451 96.654 88.2491 96.906C88.1531 97.158 88.0931 97.422 88.0691 97.698C88.0451 97.962 88.0631 98.232 88.1231 98.508C88.1951 98.772 88.3031 99.012 88.4471 99.228C88.5671 99.408 88.7831 99.558 89.0951 99.678C89.4071 99.798 89.7311 99.87 90.0671 99.894C90.4511 99.918 90.7871 99.816 91.0751 99.588C91.3631 99.348 91.5791 99.054 91.7231 98.706C91.8791 98.358 91.9511 97.98 91.9391 97.572C91.9271 97.164 91.8191 96.792 91.6151 96.456C91.4711 96.216 91.2671 96.042 91.0031 95.934C90.7511 95.814 90.4811 95.754 90.1931 95.754C89.9171 95.742 89.6411 95.784 89.3651 95.88C89.0891 95.964 88.8551 96.096 88.6631 96.276ZM100.087 98.832C99.8594 98.688 99.6014 98.574 99.3134 98.49C99.0374 98.406 98.7494 98.328 98.4494 98.256C98.1614 98.184 97.8794 98.106 97.6034 98.022C97.3274 97.926 97.0754 97.794 96.8474 97.626C96.3554 97.254 96.0674 96.798 95.9834 96.258C95.9114 95.706 96.0314 95.154 96.3434 94.602C96.5114 94.314 96.7334 94.08 97.0094 93.9C97.2854 93.708 97.5854 93.564 97.9094 93.468C98.2454 93.36 98.5874 93.3 98.9354 93.288C99.2834 93.276 99.6134 93.294 99.9254 93.342C100.129 93.378 100.345 93.432 100.573 93.504C100.801 93.564 101.011 93.648 101.203 93.756C101.407 93.864 101.587 94.002 101.743 94.17C101.911 94.326 102.031 94.524 102.103 94.764C102.151 94.92 102.157 95.07 102.121 95.214C102.097 95.358 102.037 95.478 101.941 95.574C101.857 95.67 101.743 95.742 101.599 95.79C101.467 95.838 101.323 95.85 101.167 95.826C100.987 95.79 100.819 95.736 100.663 95.664C100.507 95.592 100.351 95.514 100.195 95.43C100.039 95.346 99.8774 95.274 99.7094 95.214C99.5534 95.154 99.3854 95.124 99.2054 95.124C98.9294 95.112 98.7014 95.16 98.5214 95.268C98.3414 95.376 98.2154 95.508 98.1434 95.664C98.0834 95.82 98.0894 95.988 98.1614 96.168C98.2454 96.348 98.4134 96.504 98.6654 96.636C98.8934 96.756 99.1454 96.852 99.4214 96.924C99.6974 96.996 99.9674 97.068 100.231 97.14C100.507 97.212 100.771 97.296 101.023 97.392C101.287 97.488 101.521 97.62 101.725 97.788C102.121 98.112 102.361 98.49 102.445 98.922C102.541 99.354 102.517 99.78 102.373 100.2C102.229 100.62 101.977 100.992 101.617 101.316C101.269 101.64 100.855 101.856 100.375 101.964C100.027 102.036 99.6494 102.072 99.2414 102.072C98.8454 102.072 98.4494 102.03 98.0534 101.946C97.6694 101.862 97.2974 101.73 96.9374 101.55C96.5894 101.37 96.2954 101.142 96.0554 100.866C95.8874 100.674 95.7974 100.458 95.7854 100.218C95.7854 99.966 95.8334 99.75 95.9294 99.57C96.0374 99.378 96.1874 99.246 96.3794 99.174C96.5714 99.102 96.7874 99.144 97.0274 99.3C97.2194 99.432 97.4474 99.564 97.7114 99.696C97.9754 99.816 98.2394 99.912 98.5034 99.984C98.7674 100.056 99.0194 100.092 99.2594 100.092C99.5114 100.092 99.7274 100.038 99.9074 99.93C100.171 99.762 100.309 99.57 100.321 99.354C100.333 99.126 100.255 98.952 100.087 98.832Z" fill="white"/>
<path d="M61.7163 26.2556C60.568 26.2556 59.3878 26.1752 58.2437 26.2667C57.772 26.3044 57.1336 26.4245 56.7397 26.698C56.1891 27.0803 55.5629 27.1386 55.0366 27.4943C53.0316 28.849 50.5177 31.3619 49.9714 33.8201C49.7182 34.9599 49.2083 36.0114 49.1752 37.2043C49.1439 38.3302 49.1752 39.4618 49.1752 40.5884C49.1752 42.3605 49.3369 44.0319 49.5844 45.7641C50.2406 50.3575 54.0202 52.8315 57.735 54.9211C60.9594 56.7348 64.7992 57.3099 68.4403 57.3099C71.5966 57.3099 74.3381 56.1511 77.0555 54.6225C78.1296 54.0183 79.0736 53.4751 80.0304 52.6871C80.925 51.9504 81.4144 50.9377 82.1095 50.044C83.0381 48.85 83.0675 47.3768 83.4587 46.0074C84.0295 44.0096 84.0117 41.2814 84.0117 39.206C84.0117 36.8332 83.0728 34.7292 82.021 32.6257C80.5944 29.7724 78.4144 28.1363 75.5514 26.8639C73.1005 25.7746 69.8189 25.0612 67.1353 25.0612C65.2627 25.0612 63.39 25.0612 61.5173 25.0612C61.0054 25.0612 60.1936 24.8975 59.7257 25.1055C59.3244 25.2838 59.0988 25.6733 58.7303 25.8575" stroke="white" stroke-width="3" stroke-linecap="round"/>
<path d="M68.8827 26.0566C66.6024 26.0566 63.9775 25.587 62.214 27.3505C61.6075 27.957 60.9658 29.4607 60.7652 30.2812C60.4981 31.3741 60.3229 32.2397 60.3229 33.3778C60.3229 37.7301 67.5772 39.2181 69.4799 35.4127C70.4727 33.427 70.4939 31.7339 68.9933 29.9605C68.4981 29.3752 65.8937 28.5705 65.5428 29.7282C65.3989 30.2032 64.272 32.6011 65.012 33.0239C65.5852 33.3514 66.9698 33.4656 67.2902 32.8248" stroke="white" stroke-width="3" stroke-linecap="round"/>
<path d="M59.3275 40.7875C59.3275 41.3515 59.3275 41.9155 59.3275 42.4795C59.3275 43.4404 59.8961 42.6613 60.3229 42.4242C61.6635 41.6795 60.4291 40.384 59.4271 41.1856C59.1784 41.3845 59.3275 42.2731 59.3275 42.5791C59.3275 43.5126 59.7386 42.7943 60.1238 43.2758C60.5497 43.8081 60.9201 43.1661 60.9201 42.7781C60.9201 42.1951 60.3631 41.8633 60.1238 41.3847" stroke="white" stroke-width="3" stroke-linecap="round"/>
<path d="M71.0724 42.3801C71.0724 41.9801 70.083 41.3402 69.7232 41.628C69.3121 41.9569 69.4799 42.6945 69.4799 43.1763C69.4799 43.6038 70.4544 43.9276 70.4752 43.5745C70.525 42.7281 70.449 42.6368 69.679 42.3801" stroke="white" stroke-width="3" stroke-linecap="round"/>
<path d="M85.007 39.9912C86.0036 39.9912 87.6562 39.0571 88.4907 39.8917C89.342 40.743 88.9884 42.4548 88.9884 43.5744C88.9884 44.5867 88.1001 46.3918 86.9977 46.5493C86.0671 46.6823 84.8704 46.6852 84.4099 45.7641" stroke="white" stroke-width="3" stroke-linecap="round"/>
<path d="M48.7771 37.4034C46.5806 37.4034 43.4023 35.8458 43.4023 39.3941C43.4023 41.9655 45.8625 42.3801 47.9808 42.3801" stroke="white" stroke-width="3" stroke-linecap="round"/>
<path d="M55.3462 54.5229C53.386 54.5229 52.2628 57.0091 51.0663 58.2057C50.2586 59.0133 48.777 60.6107 48.777 61.7889C48.777 62.7228 50.3408 64.227 51.011 64.8301C52.1378 65.8442 54.015 64.5391 55.1471 64.4762C56.028 64.4273 55.258 67.6695 55.0476 68.2585C54.3859 70.1114 54.1518 72.1668 54.1518 74.1309C54.1518 75.812 53.9005 77.0295 55.7886 77.6588C58.4038 78.5306 61.0736 78.3944 63.707 78.9638C67.1835 79.7155 70.6976 79.8043 74.2464 79.8043C75.3099 79.8043 77.0764 80.1657 78.0397 79.7601C79.1972 79.2727 79.1672 78.9513 79.5438 77.7141C80.2441 75.4131 80.0304 73.0009 80.0304 70.603C80.0304 69.4389 80.2294 68.3438 80.2294 67.1747C80.2294 66.8314 80.0721 64.9682 80.3843 65.6706C80.6808 66.3379 81.2018 69.034 81.9326 69.2428C82.5145 69.409 83.2203 69.1112 83.7131 68.8557C84.2866 68.5583 85.5314 68.4893 85.9581 68.0152C86.461 67.4564 85.8525 65.7132 85.5157 65.184C84.1021 62.9626 83.0857 60.8591 80.8709 59.3005C79.0693 58.0327 77.5107 55.7173 75.0537 55.7173" stroke="white" stroke-width="3" stroke-linecap="round"/>
<path d="M48.9761 61.0922C47.2457 61.0922 45.4137 63.062 44.2981 64.1777C42.8585 65.6173 43.0041 67.437 43.0041 69.3534C43.0041 70.9198 46.0138 70.3071 46.8306 69.7626C48.2232 68.8342 49.3811 67.4554 50.5686 66.2679" stroke="white" stroke-width="3" stroke-linecap="round"/>
<path d="M81.6229 70.4482C81.6229 70.2041 81.7681 70.6962 81.8662 70.8021C82.2598 71.2272 82.5373 71.7126 82.9279 72.1403C83.678 72.9618 84.5702 73.6376 85.3056 74.4295C85.9339 75.1062 87.6794 75.9375 88.4906 75.1263C89.4953 74.1216 89.4716 72.0469 88.7008 70.8906C88.1982 70.1367 87.2039 68.2621 86.4004 67.8604" stroke="white" stroke-width="3" stroke-linecap="round"/>
</svg>
