<svg width="131" height="129" viewBox="0 0 131 129" fill="none" xmlns="http://www.w3.org/2000/svg">
<path d="M0 12C0 5.37258 5.37258 0 12 0H119C125.627 0 131 5.37258 131 12V117C131 123.627 125.627 129 119 129H12C5.37258 129 0 123.627 0 117V12Z" fill="#7C55C6"/>
<path d="M33.0895 98.976C33.2455 99.324 33.2515 99.666 33.1075 100.002C32.9635 100.326 32.7355 100.626 32.4235 100.902C32.1115 101.178 31.7515 101.418 31.3435 101.622C30.9475 101.826 30.5695 101.97 30.2095 102.054C29.8135 102.138 29.3935 102.174 28.9495 102.162C28.5175 102.162 28.0795 102.108 27.6355 102C27.2035 101.904 26.7775 101.76 26.3575 101.568C25.9495 101.364 25.5715 101.118 25.2235 100.83C24.8035 100.482 24.4735 100.068 24.2335 99.588C24.0055 99.096 23.8375 98.574 23.7295 98.022C23.6215 97.47 23.5615 96.918 23.5495 96.366C23.5495 95.802 23.5675 95.274 23.6035 94.782C23.6395 94.338 23.7295 93.876 23.8735 93.396C24.0175 92.916 24.2155 92.448 24.4675 91.992C24.7315 91.524 25.0435 91.092 25.4035 90.696C25.7755 90.3 26.2075 89.964 26.6995 89.688C27.0715 89.472 27.4855 89.328 27.9415 89.256C28.4095 89.172 28.8775 89.154 29.3455 89.202C29.8255 89.238 30.2755 89.34 30.6955 89.508C31.1275 89.664 31.4935 89.88 31.7935 90.156C31.9855 90.324 32.1835 90.558 32.3875 90.858C32.6035 91.158 32.7595 91.464 32.8555 91.776C32.9515 92.088 32.9515 92.382 32.8555 92.658C32.7715 92.922 32.5315 93.102 32.1355 93.198C31.9675 93.246 31.8175 93.258 31.6855 93.234C31.5535 93.198 31.4335 93.144 31.3255 93.072C31.2175 92.988 31.1155 92.892 31.0195 92.784C30.9235 92.676 30.8335 92.568 30.7495 92.46C30.4615 92.112 30.1255 91.878 29.7415 91.758C29.3575 91.626 28.9735 91.596 28.5895 91.668C28.2175 91.728 27.8635 91.884 27.5275 92.136C27.2035 92.376 26.9515 92.688 26.7715 93.072C26.5795 93.48 26.4235 93.93 26.3035 94.422C26.1955 94.902 26.1355 95.394 26.1235 95.898C26.1115 96.39 26.1535 96.87 26.2495 97.338C26.3575 97.806 26.5375 98.22 26.7895 98.58C26.9815 98.868 27.2155 99.102 27.4915 99.282C27.7795 99.462 28.0855 99.588 28.4095 99.66C28.7335 99.732 29.0575 99.744 29.3815 99.696C29.7175 99.648 30.0415 99.54 30.3535 99.372C30.4495 99.324 30.5515 99.258 30.6595 99.174C30.7795 99.078 30.8995 98.982 31.0195 98.886C31.1395 98.79 31.2595 98.7 31.3795 98.616C31.5115 98.532 31.6495 98.472 31.7935 98.436C32.0095 98.364 32.2435 98.37 32.4955 98.454C32.7595 98.538 32.9575 98.712 33.0895 98.976ZM36.9805 93.864C37.3765 93.672 37.7905 93.534 38.2225 93.45C38.6545 93.366 39.0805 93.348 39.5005 93.396C39.9325 93.444 40.3465 93.558 40.7425 93.738C41.1505 93.918 41.5225 94.17 41.8585 94.494C42.1345 94.77 42.3745 95.106 42.5785 95.502C42.7825 95.886 42.9325 96.264 43.0285 96.636C43.2325 97.296 43.2625 97.962 43.1185 98.634C42.9745 99.306 42.7285 99.93 42.3805 100.506C42.2125 100.77 42.0025 101.01 41.7505 101.226C41.5105 101.43 41.2525 101.598 40.9765 101.73C40.6165 101.898 40.2265 102.012 39.8065 102.072C39.3865 102.144 38.9785 102.162 38.5825 102.126C37.8625 102.09 37.2265 101.91 36.6745 101.586C36.1345 101.262 35.6965 100.848 35.3605 100.344C35.0365 99.84 34.8205 99.27 34.7125 98.634C34.6165 97.986 34.6585 97.326 34.8385 96.654C35.0305 95.934 35.3065 95.352 35.6665 94.908C36.0385 94.452 36.4765 94.104 36.9805 93.864ZM37.5205 96.276C37.3405 96.444 37.2025 96.654 37.1065 96.906C37.0105 97.158 36.9505 97.422 36.9265 97.698C36.9025 97.962 36.9205 98.232 36.9805 98.508C37.0525 98.772 37.1605 99.012 37.3045 99.228C37.4245 99.408 37.6405 99.558 37.9525 99.678C38.2645 99.798 38.5885 99.87 38.9245 99.894C39.3085 99.918 39.6445 99.816 39.9325 99.588C40.2205 99.348 40.4365 99.054 40.5805 98.706C40.7365 98.358 40.8085 97.98 40.7965 97.572C40.7845 97.164 40.6765 96.792 40.4725 96.456C40.3285 96.216 40.1245 96.042 39.8605 95.934C39.6085 95.814 39.3385 95.754 39.0505 95.754C38.7745 95.742 38.4985 95.784 38.2225 95.88C37.9465 95.964 37.7125 96.096 37.5205 96.276ZM54.3989 97.806C54.4229 98.19 54.4349 98.556 54.4349 98.904C54.4349 99.24 54.4229 99.6 54.3989 99.984C54.3989 100.128 54.3989 100.29 54.3989 100.47C54.3989 100.65 54.3869 100.824 54.3629 100.992C54.3389 101.16 54.2969 101.316 54.2369 101.46C54.1769 101.604 54.0869 101.718 53.9669 101.802C53.8229 101.898 53.6609 101.964 53.4809 102C53.3009 102.024 53.1329 102.012 52.9769 101.964C52.8209 101.916 52.6829 101.826 52.5629 101.694C52.4549 101.562 52.3949 101.376 52.3829 101.136C52.3469 100.584 52.3289 100.032 52.3289 99.48C52.3289 99.204 52.3229 98.94 52.3109 98.688C52.3109 98.436 52.3169 98.082 52.3289 97.626C52.3289 97.398 52.3109 97.14 52.2749 96.852C52.2389 96.552 52.1489 96.342 52.0049 96.222C51.8969 96.126 51.7769 96.072 51.6449 96.06C51.5129 96.036 51.3809 96.048 51.2489 96.096C51.1289 96.144 51.0209 96.234 50.9249 96.366C50.8289 96.486 50.7629 96.642 50.7269 96.834C50.7269 96.99 50.7209 97.152 50.7089 97.32C50.7089 97.476 50.7149 97.626 50.7269 97.77C50.7389 98.154 50.7449 98.52 50.7449 98.868C50.7449 99.204 50.7389 99.564 50.7269 99.948C50.7149 100.104 50.7089 100.272 50.7089 100.452C50.7209 100.632 50.7209 100.812 50.7089 100.992C50.6969 101.16 50.6609 101.316 50.6009 101.46C50.5529 101.604 50.4629 101.718 50.3309 101.802C50.1869 101.898 50.0309 101.958 49.8629 101.982C49.7069 101.994 49.5569 101.97 49.4129 101.91C49.2809 101.838 49.1609 101.73 49.0529 101.586C48.9569 101.442 48.9029 101.25 48.8909 101.01C48.8669 100.734 48.8489 100.482 48.8369 100.254C48.8369 100.014 48.8369 99.762 48.8369 99.498C48.8369 99.222 48.8429 98.94 48.8549 98.652C48.8669 98.352 48.8609 98.064 48.8369 97.788C48.8369 97.704 48.8309 97.608 48.8189 97.5C48.8189 97.38 48.8129 97.26 48.8009 97.14C48.8009 97.02 48.7889 96.906 48.7649 96.798C48.7529 96.678 48.7289 96.582 48.6929 96.51C48.5969 96.342 48.4229 96.234 48.1709 96.186C47.9309 96.138 47.7269 96.156 47.5589 96.24C47.3909 96.324 47.2649 96.432 47.1809 96.564C47.0969 96.696 47.0369 96.84 47.0009 96.996C46.9649 97.152 46.9469 97.32 46.9469 97.5C46.9469 97.668 46.9469 97.83 46.9469 97.986C46.9469 98.766 46.9469 99.444 46.9469 100.02C46.9589 100.584 46.8989 101.04 46.7669 101.388C46.7069 101.568 46.5809 101.706 46.3889 101.802C46.2089 101.898 46.0109 101.946 45.7949 101.946C45.5909 101.946 45.3989 101.898 45.2189 101.802C45.0389 101.706 44.9189 101.556 44.8589 101.352C44.8229 101.22 44.7869 101.034 44.7509 100.794C44.7269 100.542 44.7089 100.266 44.6969 99.966C44.6849 99.666 44.6789 99.366 44.6789 99.066C44.6789 98.754 44.6789 98.472 44.6789 98.22V95.628C44.6669 95.352 44.6609 95.052 44.6609 94.728C44.6609 94.404 44.7089 94.11 44.8049 93.846C44.8889 93.618 45.0209 93.474 45.2009 93.414C45.3809 93.342 45.5669 93.312 45.7589 93.324C45.9749 93.324 46.1429 93.384 46.2629 93.504C46.3949 93.612 46.4909 93.75 46.5509 93.918C46.6109 94.074 46.6469 94.254 46.6589 94.458C46.6709 94.65 46.6829 94.836 46.6949 95.016C46.8269 94.716 46.9829 94.47 47.1629 94.278C47.3549 94.074 47.6249 93.942 47.9729 93.882C48.8609 93.714 49.5689 93.942 50.0969 94.566C50.3369 94.326 50.6429 94.128 51.0149 93.972C51.3029 93.864 51.5969 93.816 51.8969 93.828C52.1969 93.828 52.4789 93.882 52.7429 93.99C53.0189 94.098 53.2649 94.254 53.4809 94.458C53.7089 94.662 53.8889 94.908 54.0209 95.196C54.2009 95.58 54.3029 96.006 54.3269 96.474C54.3509 96.942 54.3749 97.386 54.3989 97.806ZM60.9153 93.9C61.2633 94.044 61.5813 94.254 61.8693 94.53C62.1573 94.794 62.4033 95.1 62.6073 95.448C62.8233 95.796 62.9853 96.174 63.0933 96.582C63.2133 96.978 63.2733 97.38 63.2733 97.788C63.2853 98.4 63.1413 98.976 62.8413 99.516C62.5533 100.056 62.0793 100.47 61.4193 100.758C60.9153 100.962 60.3933 101.118 59.8533 101.226C59.3253 101.322 58.7733 101.388 58.1973 101.424V104.718C58.1973 104.79 58.1853 104.856 58.1613 104.916C58.1493 104.976 58.1433 105.036 58.1433 105.096C58.1193 105.216 58.0893 105.324 58.0533 105.42C58.0293 105.516 57.9933 105.618 57.9453 105.726C57.8973 105.798 57.8493 105.864 57.8013 105.924C57.7533 105.984 57.6993 106.044 57.6393 106.104C57.3513 106.248 57.0513 106.278 56.7393 106.194C56.5473 106.182 56.3913 106.122 56.2713 106.014C56.1633 105.906 56.0853 105.792 56.0373 105.672C55.9893 105.552 55.9473 105.414 55.9113 105.258C55.8993 105.198 55.8873 105.138 55.8753 105.078C55.8753 105.03 55.8753 104.976 55.8753 104.916V94.89C55.8753 94.818 55.8753 94.746 55.8753 94.674C55.8873 94.59 55.8993 94.506 55.9113 94.422C55.9233 94.278 55.9593 94.134 56.0193 93.99C56.1273 93.69 56.3493 93.486 56.6853 93.378C57.0213 93.27 57.3993 93.222 57.8193 93.234C58.1073 93.246 58.4013 93.276 58.7013 93.324C59.0133 93.372 59.3073 93.432 59.5833 93.504C59.8713 93.564 60.1293 93.63 60.3573 93.702C60.5853 93.774 60.7713 93.84 60.9153 93.9ZM60.9513 97.788C60.9993 97.452 60.9573 97.17 60.8253 96.942C60.7053 96.702 60.5313 96.51 60.3033 96.366C60.0753 96.21 59.8113 96.09 59.5113 96.006C59.2233 95.922 58.9353 95.862 58.6473 95.826C58.6113 95.814 58.5513 95.808 58.4673 95.808C58.3953 95.808 58.3113 95.808 58.2153 95.808C58.2153 96.192 58.2153 96.564 58.2153 96.924C58.2273 97.272 58.2273 97.65 58.2153 98.058V99.264C58.4913 99.252 58.7793 99.222 59.0793 99.174C59.3913 99.126 59.6793 99.048 59.9433 98.94C60.2073 98.832 60.4293 98.688 60.6093 98.508C60.8013 98.328 60.9153 98.088 60.9513 97.788ZM64.7526 95.628C64.7526 95.484 64.7526 95.322 64.7526 95.142C64.7526 94.95 64.7586 94.758 64.7706 94.566C64.7826 94.362 64.8006 94.17 64.8246 93.99C64.8606 93.798 64.9086 93.63 64.9686 93.486C65.0646 93.27 65.2146 93.126 65.4186 93.054C65.6226 92.97 65.8446 92.934 66.0846 92.946C66.3366 92.946 66.5346 92.988 66.6786 93.072C66.8226 93.156 66.9306 93.27 67.0026 93.414C67.0746 93.546 67.1166 93.702 67.1286 93.882C67.1526 94.05 67.1646 94.23 67.1646 94.422C67.2726 94.23 67.4166 94.074 67.5966 93.954C67.7886 93.834 67.9806 93.738 68.1726 93.666C68.3646 93.594 68.5386 93.546 68.6946 93.522C68.8506 93.486 68.9406 93.468 68.9646 93.468C69.2646 93.444 69.5346 93.438 69.7746 93.45C70.0266 93.462 70.3026 93.516 70.6026 93.612C70.7946 93.684 70.9926 93.786 71.1966 93.918C71.4006 94.038 71.5806 94.182 71.7366 94.35C71.8926 94.518 71.9946 94.704 72.0426 94.908C72.1026 95.1 72.0786 95.304 71.9706 95.52C71.8026 95.82 71.6166 95.97 71.4126 95.97C71.2086 95.958 70.9866 95.922 70.7466 95.862C70.6146 95.838 70.4586 95.784 70.2786 95.7C70.0986 95.616 69.9426 95.562 69.8106 95.538C69.4026 95.478 69.0426 95.508 68.7306 95.628C68.4186 95.748 68.1486 95.892 67.9206 96.06C67.6566 96.264 67.4286 96.498 67.2366 96.762V99.354C67.2366 99.678 67.2306 100.014 67.2186 100.362C67.2186 100.71 67.1706 101.028 67.0746 101.316C66.9906 101.592 66.8406 101.82 66.6246 102C66.4206 102.168 66.1206 102.24 65.7246 102.216C65.5086 102.204 65.3166 102.102 65.1486 101.91C64.9806 101.706 64.8786 101.508 64.8426 101.316C64.8186 101.136 64.8006 100.92 64.7886 100.668C64.7766 100.416 64.7646 100.152 64.7526 99.876C64.7526 99.6 64.7526 99.324 64.7526 99.048C64.7526 98.76 64.7526 98.496 64.7526 98.256V95.628ZM78.6794 99.534C78.8234 99.498 78.9674 99.474 79.1114 99.462C79.2674 99.45 79.4054 99.468 79.5254 99.516C79.6574 99.564 79.7654 99.648 79.8494 99.768C79.9334 99.876 79.9754 100.032 79.9754 100.236C79.9754 100.38 79.9394 100.518 79.8674 100.65C79.7954 100.782 79.7054 100.902 79.5974 101.01C79.4894 101.118 79.3694 101.214 79.2374 101.298C79.1054 101.37 78.9794 101.43 78.8594 101.478C78.5114 101.634 78.1094 101.754 77.6534 101.838C77.2094 101.922 76.7474 101.952 76.2674 101.928C75.6194 101.904 74.9954 101.778 74.3954 101.55C73.8074 101.31 73.3454 100.92 73.0094 100.38C72.6974 99.852 72.5114 99.264 72.4514 98.616C72.3914 97.968 72.4214 97.356 72.5414 96.78C72.6734 96.084 72.8954 95.52 73.2074 95.088C73.5314 94.644 73.9154 94.29 74.3594 94.026C74.8994 93.714 75.5054 93.552 76.1774 93.54C76.8494 93.528 77.4914 93.66 78.1034 93.936C78.5114 94.116 78.8774 94.362 79.2014 94.674C79.5254 94.974 79.7714 95.34 79.9394 95.772C79.9874 95.88 80.0234 96.012 80.0474 96.168C80.0834 96.324 80.1074 96.492 80.1194 96.672C80.1314 96.84 80.1314 97.008 80.1194 97.176C80.1074 97.344 80.0774 97.494 80.0294 97.626C79.9574 97.842 79.8674 98.01 79.7594 98.13C79.6514 98.25 79.5134 98.34 79.3454 98.4C79.1774 98.46 78.9734 98.502 78.7334 98.526C78.5054 98.538 78.2294 98.55 77.9054 98.562C77.6174 98.574 77.3474 98.58 77.0954 98.58C76.8434 98.58 76.5854 98.58 76.3214 98.58C76.0574 98.568 75.7814 98.562 75.4934 98.562C75.2174 98.55 74.9054 98.538 74.5574 98.526C74.5214 98.766 74.5514 98.976 74.6474 99.156C74.7554 99.324 74.8994 99.468 75.0794 99.588C75.2594 99.696 75.4634 99.78 75.6914 99.84C75.9194 99.9 76.1414 99.936 76.3574 99.948C76.7654 99.972 77.1554 99.942 77.5274 99.858C77.8994 99.762 78.2834 99.654 78.6794 99.534ZM77.9054 96.042C77.6774 95.778 77.4374 95.586 77.1854 95.466C76.9934 95.382 76.7894 95.346 76.5734 95.358C76.3694 95.358 76.1714 95.388 75.9794 95.448C75.6314 95.532 75.3374 95.712 75.0974 95.988C75.0734 96.012 75.0314 96.072 74.9714 96.168C74.9114 96.252 74.8514 96.342 74.7914 96.438C74.7434 96.534 74.7074 96.624 74.6834 96.708C74.6594 96.792 74.6714 96.834 74.7194 96.834H78.2474C78.2354 96.666 78.2054 96.528 78.1574 96.42C78.1094 96.3 78.0254 96.174 77.9054 96.042ZM81.5925 95.574C81.5925 95.298 81.5865 95.004 81.5745 94.692C81.5745 94.38 81.6285 94.098 81.7365 93.846C81.8325 93.618 81.9885 93.456 82.2045 93.36C82.4325 93.252 82.6545 93.228 82.8705 93.288C83.0865 93.324 83.2545 93.39 83.3745 93.486C83.4945 93.582 83.5785 93.696 83.6265 93.828C83.6865 93.948 83.7225 94.092 83.7345 94.26C83.7465 94.416 83.7585 94.572 83.7705 94.728C83.8905 94.512 84.0405 94.338 84.2205 94.206C84.4005 94.074 84.5865 93.966 84.7785 93.882C84.9705 93.798 85.1505 93.738 85.3185 93.702C85.4985 93.666 85.6365 93.648 85.7325 93.648C86.1885 93.648 86.6385 93.75 87.0825 93.954C87.5385 94.146 87.9165 94.422 88.2165 94.782C88.3845 94.998 88.5105 95.226 88.5945 95.466C88.6905 95.694 88.7565 95.934 88.7925 96.186C88.8405 96.438 88.8705 96.696 88.8825 96.96C88.8945 97.212 88.9065 97.47 88.9185 97.734C88.9785 98.502 88.9785 99.264 88.9185 100.02C88.9065 100.176 88.9005 100.356 88.9005 100.56C88.9005 100.764 88.8825 100.968 88.8465 101.172C88.8225 101.364 88.7685 101.538 88.6845 101.694C88.6125 101.838 88.4865 101.928 88.3065 101.964C88.0545 102.024 87.8445 102.036 87.6765 102C87.5205 101.976 87.3945 101.922 87.2985 101.838C87.2025 101.754 87.1305 101.646 87.0825 101.514C87.0345 101.382 86.9925 101.232 86.9565 101.064C86.9325 100.932 86.9085 100.782 86.8845 100.614C86.8725 100.434 86.8605 100.254 86.8485 100.074C86.8485 99.894 86.8425 99.72 86.8305 99.552C86.8305 99.372 86.8305 99.21 86.8305 99.066C86.8305 98.838 86.8245 98.586 86.8125 98.31C86.8005 98.034 86.8005 97.776 86.8125 97.536C86.8125 96.972 86.6625 96.546 86.3625 96.258C86.0745 95.958 85.6785 95.832 85.1745 95.88C84.7905 95.928 84.4545 96.084 84.1665 96.348C83.8785 96.6 83.7405 96.93 83.7525 97.338C83.7525 97.494 83.7525 97.638 83.7525 97.77C83.7525 97.902 83.7465 98.034 83.7345 98.166C83.7345 98.298 83.7345 98.442 83.7345 98.598C83.7345 98.754 83.7345 98.928 83.7345 99.12C83.7345 99.516 83.7345 99.936 83.7345 100.38C83.7345 100.812 83.6805 101.166 83.5725 101.442C83.4765 101.73 83.3145 101.928 83.0865 102.036C82.8585 102.144 82.5885 102.114 82.2765 101.946C82.1445 101.874 82.0365 101.778 81.9525 101.658C81.8805 101.526 81.8205 101.388 81.7725 101.244C81.7365 101.1 81.7125 100.956 81.7005 100.812C81.6885 100.656 81.6765 100.512 81.6645 100.38C81.6285 99.984 81.6045 99.618 81.5925 99.282C81.5925 98.934 81.5925 98.562 81.5925 98.166V95.574ZM96.0323 89.418C96.2603 89.358 96.4583 89.352 96.6263 89.4C96.8063 89.436 96.9563 89.514 97.0763 89.634C97.2083 89.754 97.3043 89.904 97.3643 90.084C97.4363 90.264 97.4723 90.462 97.4723 90.678C97.4843 91.278 97.4843 91.746 97.4723 92.082C97.4723 92.418 97.4723 92.712 97.4723 92.964V98.49C97.4723 99.138 97.4723 99.678 97.4723 100.11C97.4723 100.542 97.4483 100.896 97.4003 101.172C97.3643 101.436 97.2923 101.634 97.1843 101.766C97.0883 101.898 96.9383 101.988 96.7343 102.036C96.5303 102.096 96.2603 102.126 95.9243 102.126C95.6003 102.126 95.1923 102.126 94.7003 102.126C93.4043 102.126 92.3783 101.82 91.6223 101.208C90.8783 100.596 90.4823 99.624 90.4343 98.292C90.4103 97.716 90.4823 97.188 90.6503 96.708C90.8183 96.228 91.0643 95.82 91.3883 95.484C91.7243 95.136 92.1323 94.872 92.6123 94.692C93.1043 94.5 93.6623 94.41 94.2863 94.422H95.2763V91.2C95.2763 91.008 95.2763 90.822 95.2763 90.642C95.2763 90.45 95.2943 90.276 95.3303 90.12C95.3663 89.952 95.4383 89.808 95.5463 89.688C95.6543 89.568 95.8163 89.478 96.0323 89.418ZM92.9003 99.408C93.1523 99.756 93.6083 99.948 94.2683 99.984C94.4003 99.996 94.5263 100.002 94.6463 100.002C94.7663 99.99 94.8743 99.972 94.9703 99.948C95.0783 99.936 95.1803 99.918 95.2763 99.894V96.564C94.8563 96.492 94.4723 96.45 94.1243 96.438C93.7883 96.414 93.4523 96.534 93.1163 96.798C92.9363 96.942 92.7983 97.128 92.7023 97.356C92.6063 97.572 92.5523 97.806 92.5403 98.058C92.5283 98.298 92.5523 98.538 92.6123 98.778C92.6723 99.018 92.7683 99.228 92.9003 99.408ZM101.246 93.864C101.642 93.672 102.056 93.534 102.488 93.45C102.92 93.366 103.346 93.348 103.766 93.396C104.198 93.444 104.612 93.558 105.008 93.738C105.416 93.918 105.788 94.17 106.124 94.494C106.4 94.77 106.64 95.106 106.844 95.502C107.048 95.886 107.198 96.264 107.294 96.636C107.498 97.296 107.528 97.962 107.384 98.634C107.24 99.306 106.994 99.93 106.646 100.506C106.478 100.77 106.268 101.01 106.016 101.226C105.776 101.43 105.518 101.598 105.242 101.73C104.882 101.898 104.492 102.012 104.072 102.072C103.652 102.144 103.244 102.162 102.848 102.126C102.128 102.09 101.492 101.91 100.94 101.586C100.4 101.262 99.9621 100.848 99.6261 100.344C99.3021 99.84 99.0861 99.27 98.9781 98.634C98.8821 97.986 98.9241 97.326 99.1041 96.654C99.2961 95.934 99.5721 95.352 99.9321 94.908C100.304 94.452 100.742 94.104 101.246 93.864ZM101.786 96.276C101.606 96.444 101.468 96.654 101.372 96.906C101.276 97.158 101.216 97.422 101.192 97.698C101.168 97.962 101.186 98.232 101.246 98.508C101.318 98.772 101.426 99.012 101.57 99.228C101.69 99.408 101.906 99.558 102.218 99.678C102.53 99.798 102.854 99.87 103.19 99.894C103.574 99.918 103.91 99.816 104.198 99.588C104.486 99.348 104.702 99.054 104.846 98.706C105.002 98.358 105.074 97.98 105.062 97.572C105.05 97.164 104.942 96.792 104.738 96.456C104.594 96.216 104.39 96.042 104.126 95.934C103.874 95.814 103.604 95.754 103.316 95.754C103.04 95.742 102.764 95.784 102.488 95.88C102.212 95.964 101.978 96.096 101.786 96.276Z" fill="white"/>
<path d="M57.2839 33.3659C57.1197 31.8881 55.0834 29.2378 53.8379 28.4767C52.1424 27.4405 50.799 26.95 48.8014 27.004C45.5189 27.0927 42.9554 29.3688 42.7046 32.6296C42.6338 33.549 42.4395 34.3907 42.4395 35.354C42.4395 36.7511 42.1548 35.8586 41.3792 35.4276C37.651 33.3564 34.4286 31.5104 29.9955 31.5104C26.3034 31.5104 27.0649 34.5347 27.0649 37.3421C27.0649 39.2172 27.8047 39.796 28.6554 41.3183C29.3694 42.596 30.5394 42.6221 31.5124 43.4978C31.7819 43.7404 29.3863 43.865 28.7879 43.9691C25.5015 44.5406 24.0235 48.1719 23.3538 51.0084C22.6599 53.9472 22.8855 56.7763 24.9443 59.0638C26.6732 60.9848 29.5783 61.4229 31.9542 60.5217C34.5023 59.5552 36.4381 57.1678 37.6681 54.8373C37.907 54.3845 38.3353 53.8893 38.4486 53.3793C38.6703 52.3817 39.034 54.052 39.1555 54.3218C40.1018 56.4248 41.1786 59.8779 43.5587 60.7279C45.8202 61.5356 48.4149 61.4288 50.3771 59.8591C52.4451 58.2047 53.9798 55.7367 54.8982 53.3057C55.0334 52.9479 55.0438 50.1568 55.3105 50.0806C56.8216 49.6489 59.1502 51.0679 60.671 51.3323C63.2066 51.7733 65.3648 51.0262 67.3569 49.4768C70.3238 47.1692 70.0252 43.2939 67.298 41.1121C66.8461 40.7506 67.1396 40.7078 67.6514 40.1107C68.675 38.9165 69.4846 38.0184 70.1402 36.5616C70.5805 35.5832 71.0893 32.5729 70.258 31.6723C68.3393 29.5937 64.078 28.6836 61.4073 29.6548C59.5808 30.319 59.1095 32.3205 57.549 33.1008" stroke="white" stroke-width="3" stroke-linecap="round"/>
<path d="M97.9482 62.4648C98.1977 61.4068 97.3757 59.0473 96.6581 58.1944C95.6812 57.0334 94.8246 56.3403 93.3551 55.8474C90.9404 55.0375 88.5034 55.9199 87.5059 58.0917C87.2246 58.7041 86.8726 59.2303 86.632 59.8915C86.2829 60.8505 86.2984 60.1624 85.8408 59.6608C83.6409 57.25 81.7535 55.1279 78.5224 53.9519C75.8313 52.9724 75.6307 55.2505 74.9293 57.1776C74.4608 58.4648 74.8555 59.0584 75.0951 60.329C75.2963 61.3955 76.1425 61.7238 76.6329 62.583C76.7688 62.821 74.9916 62.2711 74.5295 62.1838C71.9913 61.7043 70.0068 63.8049 68.81 65.5743C67.57 67.4076 67.0276 69.4094 67.9566 71.5258C68.7368 73.3031 70.7448 74.3745 72.7016 74.3862C74.8003 74.3987 76.8077 73.2734 78.2865 71.9999C78.5737 71.7526 79.0096 71.5262 79.2196 71.2062C79.6305 70.5802 79.4783 71.8233 79.4993 72.0407C79.6637 73.7353 79.5858 76.3913 81.1082 77.6062C82.5547 78.7606 84.4725 79.3756 86.2949 78.8186C88.2155 78.2316 89.9507 76.9446 91.2275 75.5195C91.4154 75.3097 92.1203 73.3966 92.3338 73.415C93.543 73.5195 94.8857 75.1113 95.9281 75.6963C97.666 76.6717 99.4257 76.7313 101.265 76.1962C104.004 75.3993 104.754 72.6598 103.312 70.4387C103.073 70.0706 103.297 70.1191 103.82 69.845C104.864 69.2969 105.678 68.8951 106.52 68.069C107.086 67.5142 108.209 65.5828 107.828 64.7441C106.949 62.8082 104.07 61.0531 101.881 61.0112C100.384 60.9826 99.54 62.2315 98.2076 62.3532" stroke="white" stroke-width="3" stroke-linecap="round"/>
</svg>
