<svg width="131" height="128" viewBox="0 0 131 128" fill="none" xmlns="http://www.w3.org/2000/svg">
<path d="M0 12C0 5.37258 5.37258 0 12 0H119C125.627 0 131 5.37258 131 12V116C131 122.627 125.627 128 119 128H12C5.37258 128 0 122.627 0 116V12Z" fill="#DB0633"/>
<path d="M60.8389 99.762C60.8989 99.93 60.9409 100.122 60.9649 100.338C61.0009 100.542 61.0189 100.752 61.0189 100.968C61.0189 101.184 61.0009 101.4 60.9649 101.616C60.9409 101.82 60.9049 102 60.8569 102.156C60.6649 102.828 60.2809 103.392 59.7049 103.848C59.1289 104.292 58.4689 104.616 57.7249 104.82C56.9929 105.024 56.2309 105.096 55.4389 105.036C54.6589 104.976 53.9629 104.778 53.3509 104.442C52.9669 104.226 52.6369 103.962 52.3609 103.65C52.0849 103.338 51.8509 102.99 51.6589 102.606C51.5869 102.474 51.5389 102.324 51.5149 102.156C51.5029 101.976 51.5209 101.808 51.5689 101.652C51.6169 101.484 51.6949 101.34 51.8029 101.22C51.9109 101.088 52.0609 100.998 52.2529 100.95C52.3729 100.926 52.5049 100.914 52.6489 100.914C52.8049 100.914 52.9549 100.938 53.0989 100.986C53.2429 101.022 53.3749 101.088 53.4949 101.184C53.6149 101.268 53.7109 101.388 53.7829 101.544C53.9149 101.796 54.1009 102.03 54.3409 102.246C54.5929 102.45 54.8569 102.618 55.1329 102.75C55.5289 102.882 55.9249 102.936 56.3209 102.912C56.7289 102.888 57.0949 102.798 57.4189 102.642C57.7549 102.486 58.0249 102.276 58.2289 102.012C58.4329 101.736 58.5349 101.424 58.5349 101.076C58.5349 100.788 58.4929 100.554 58.4089 100.374C58.3249 100.182 58.2049 100.026 58.0489 99.906C57.9049 99.774 57.7249 99.666 57.5089 99.582C57.3049 99.498 57.0769 99.426 56.8249 99.366C56.5369 99.306 56.2429 99.264 55.9429 99.24C55.6549 99.216 55.3609 99.186 55.0609 99.15C54.7609 99.114 54.4669 99.066 54.1789 99.006C53.8909 98.946 53.6089 98.856 53.3329 98.736C52.7809 98.508 52.3609 98.16 52.0729 97.692C51.7849 97.224 51.6109 96.72 51.5509 96.18C51.5029 95.64 51.5689 95.106 51.7489 94.578C51.9289 94.038 52.2169 93.576 52.6129 93.192C52.9969 92.844 53.4529 92.598 53.9809 92.454C54.5209 92.298 55.1149 92.208 55.7629 92.184C56.1229 92.172 56.4829 92.184 56.8429 92.22C57.2149 92.256 57.5689 92.316 57.9049 92.4C58.2529 92.484 58.5709 92.592 58.8589 92.724C59.1589 92.856 59.4169 93.012 59.6329 93.192C59.7889 93.312 59.9449 93.474 60.1009 93.678C60.2569 93.87 60.3769 94.08 60.4609 94.308C60.5449 94.524 60.5689 94.734 60.5329 94.938C60.5089 95.142 60.3829 95.316 60.1549 95.46C59.9629 95.58 59.7769 95.634 59.5969 95.622C59.4289 95.598 59.2669 95.544 59.1109 95.46C58.9549 95.364 58.8049 95.256 58.6609 95.136C58.5169 95.016 58.3849 94.908 58.2649 94.812C57.9409 94.572 57.5389 94.41 57.0589 94.326C56.5789 94.242 56.1289 94.224 55.7089 94.272C55.4449 94.308 55.1989 94.368 54.9709 94.452C54.7429 94.536 54.5449 94.65 54.3769 94.794C54.2209 94.938 54.0949 95.118 53.9989 95.334C53.9149 95.538 53.8849 95.772 53.9089 96.036C53.9209 96.228 53.9749 96.39 54.0709 96.522C54.1789 96.654 54.3049 96.762 54.4489 96.846C54.6049 96.93 54.7729 96.996 54.9529 97.044C55.1329 97.092 55.3129 97.128 55.4929 97.152C56.0329 97.224 56.5729 97.278 57.1129 97.314C57.6529 97.35 58.1809 97.47 58.6969 97.674C59.2249 97.878 59.6749 98.154 60.0469 98.502C60.4189 98.85 60.6829 99.27 60.8389 99.762ZM64.7881 96.864C65.1841 96.672 65.5981 96.534 66.0301 96.45C66.4621 96.366 66.8881 96.348 67.3081 96.396C67.7401 96.444 68.1541 96.558 68.5501 96.738C68.9581 96.918 69.3301 97.17 69.6661 97.494C69.9421 97.77 70.1821 98.106 70.3861 98.502C70.5901 98.886 70.7401 99.264 70.8361 99.636C71.0401 100.296 71.0701 100.962 70.9261 101.634C70.7821 102.306 70.5361 102.93 70.1881 103.506C70.0201 103.77 69.8101 104.01 69.5581 104.226C69.3181 104.43 69.0601 104.598 68.7841 104.73C68.4241 104.898 68.0341 105.012 67.6141 105.072C67.1941 105.144 66.7861 105.162 66.3901 105.126C65.6701 105.09 65.0341 104.91 64.4821 104.586C63.9421 104.262 63.5041 103.848 63.1681 103.344C62.8441 102.84 62.6281 102.27 62.5201 101.634C62.4241 100.986 62.4661 100.326 62.6461 99.654C62.8381 98.934 63.1141 98.352 63.4741 97.908C63.8461 97.452 64.2841 97.104 64.7881 96.864ZM65.3281 99.276C65.1481 99.444 65.0101 99.654 64.9141 99.906C64.8181 100.158 64.7581 100.422 64.7341 100.698C64.7101 100.962 64.7281 101.232 64.7881 101.508C64.8601 101.772 64.9681 102.012 65.1121 102.228C65.2321 102.408 65.4481 102.558 65.7601 102.678C66.0721 102.798 66.3961 102.87 66.7321 102.894C67.1161 102.918 67.4521 102.816 67.7401 102.588C68.0281 102.348 68.2441 102.054 68.3881 101.706C68.5441 101.358 68.6161 100.98 68.6041 100.572C68.5921 100.164 68.4841 99.792 68.2801 99.456C68.1361 99.216 67.9321 99.042 67.6681 98.934C67.4161 98.814 67.1461 98.754 66.8581 98.754C66.5821 98.742 66.3061 98.784 66.0301 98.88C65.7541 98.964 65.5201 99.096 65.3281 99.276ZM80.3258 96.972C80.4338 97.14 80.4818 97.32 80.4698 97.512C80.4698 97.788 80.4218 98.028 80.3258 98.232C80.3018 98.292 80.2658 98.37 80.2178 98.466C80.1818 98.562 80.1398 98.664 80.0918 98.772C80.0558 98.88 80.0138 98.982 79.9658 99.078C79.9178 99.174 79.8818 99.246 79.8578 99.294L79.8218 99.384C79.6538 99.756 79.4918 100.116 79.3358 100.464C79.1798 100.812 79.0058 101.184 78.8138 101.58C78.6218 101.964 78.4358 102.342 78.2558 102.714C78.0878 103.074 77.9198 103.428 77.7518 103.776C77.7038 103.872 77.6618 103.968 77.6258 104.064C77.5898 104.148 77.5418 104.238 77.4818 104.334L76.6178 106.188C76.4618 106.5 76.3118 106.806 76.1678 107.106C76.0358 107.406 75.8858 107.706 75.7178 108.006C75.6818 108.066 75.6458 108.12 75.6098 108.168C75.5858 108.228 75.5618 108.288 75.5378 108.348C75.4538 108.492 75.3278 108.63 75.1598 108.762C75.0038 108.906 74.8358 108.984 74.6558 108.996C74.3318 109.02 74.0498 108.924 73.8098 108.708C73.6658 108.624 73.5518 108.504 73.4678 108.348C73.4198 108.24 73.3958 108.102 73.3958 107.934C73.4078 107.862 73.4138 107.79 73.4138 107.718C73.4258 107.658 73.4378 107.598 73.4498 107.538C73.4738 107.478 73.4918 107.418 73.5038 107.358C73.5158 107.298 73.5338 107.25 73.5578 107.214C73.5938 107.118 73.6238 107.07 73.6478 107.07L74.9618 104.226C74.9018 104.094 74.8418 103.962 74.7818 103.83C74.7218 103.686 74.6678 103.56 74.6198 103.452C74.4638 103.08 74.2958 102.69 74.1158 102.282C73.9478 101.862 73.7738 101.448 73.5938 101.04C73.4138 100.62 73.2278 100.212 73.0358 99.816C72.8438 99.42 72.6518 99.042 72.4598 98.682C72.3878 98.562 72.3218 98.436 72.2618 98.304C72.2018 98.16 72.1538 98.022 72.1178 97.89C72.0818 97.746 72.0698 97.602 72.0818 97.458C72.0938 97.314 72.1478 97.17 72.2438 97.026C72.3398 96.846 72.4658 96.72 72.6218 96.648C72.7778 96.564 72.9398 96.528 73.1078 96.54C73.2878 96.54 73.4558 96.576 73.6118 96.648C73.7678 96.72 73.8938 96.816 73.9897 96.936C74.1938 97.152 74.3558 97.392 74.4758 97.656C74.5958 97.92 74.7098 98.19 74.8178 98.466C75.0458 98.946 75.2798 99.45 75.5198 99.978C75.7598 100.506 75.9998 101.022 76.2398 101.526L77.1758 99.546C77.2718 99.354 77.3558 99.168 77.4278 98.988C77.5118 98.808 77.5958 98.634 77.6798 98.466C77.7758 98.262 77.8658 98.052 77.9498 97.836C78.0458 97.62 78.1538 97.422 78.2738 97.242C78.2978 97.194 78.3218 97.152 78.3458 97.116C78.3698 97.08 78.3938 97.038 78.4178 96.99C78.5258 96.846 78.6218 96.732 78.7058 96.648C78.7658 96.6 78.8138 96.564 78.8498 96.54C78.8978 96.504 78.9518 96.48 79.0118 96.468C79.0958 96.444 79.1738 96.432 79.2458 96.432C79.3298 96.42 79.4078 96.42 79.4798 96.432C79.5998 96.468 79.7438 96.522 79.9118 96.594C80.0918 96.666 80.2298 96.792 80.3258 96.972Z" fill="white"/>
<path d="M45.73 80.7904C45.5896 79.3857 44.2805 77.8884 43.7439 76.5852C42.4579 73.4622 41.4592 70.073 41.3287 66.6792C41.2045 63.4494 40.9598 59.8245 41.8068 56.6873C42.6227 53.6655 43.2518 50.1207 45.2887 47.6394C47.4236 45.0387 50.0656 43.2365 52.8286 41.3745C56.1873 39.111 59.1776 37.4978 63.1392 36.5441C68.9622 35.1423 75.0318 34.3356 80.9898 35.2813C84.7429 35.8771 87.2903 37.4546 90.3074 39.6336C91.9784 40.8404 93.4345 42.3333 95.1133 43.4955C96.1063 44.183 96.4577 44.9492 97.1484 45.8126C97.5079 46.262 98.4725 48.0478 98.4725 47.2471" stroke="white" stroke-width="3" stroke-linecap="round"/>
<path d="M37.7855 19C37.8403 19.9311 39.325 21.2584 39.9433 21.9179C40.947 22.9886 41.8454 24.2951 42.7631 25.4488C44.3814 27.4832 45.9677 29.5749 47.6058 31.591C48.9041 33.189 50.3401 34.7291 51.5535 36.4092C51.9747 36.9924 52.4509 37.5244 52.8898 38.0888C53.0664 38.3158 53.6745 39.469 53.6745 38.6405" stroke="white" stroke-width="3" stroke-linecap="round"/>
<path d="M71.7702 21.8689V34.227" stroke="white" stroke-width="3" stroke-linecap="round"/>
<path d="M23 55.4122C25.6545 55.4122 28.4255 55.0946 30.9445 56.0742C32.8372 56.8103 34.8623 57.1422 36.7802 57.8396C38.2148 58.3613 40.0109 58.943 41.5371 58.943" stroke="white" stroke-width="3" stroke-linecap="round"/>
<path d="M60.7362 49.4538C59.4912 49.5921 59.8535 52.237 59.8535 53.095C59.8535 54.2529 62.2374 54.29 62.943 53.9164C63.592 53.5729 64.0996 51.0411 63.4947 50.5572C62.917 50.095 63.1391 49.8952 62.1707 49.8952C61.4679 49.8952 60.9967 49.7795 60.6259 50.4469C60.0203 51.5369 60.0362 53.2633 61.006 54.039C62.3327 55.1005 63.8258 51.1029 63.8258 50.3365C63.8258 49.5313 63.5925 49.2815 62.7224 49.2331C61.8551 49.1849 61.3821 49.2694 61.006 50.1158C60.6075 51.0123 60.3634 53.1293 61.3983 53.6467" stroke="white" stroke-width="3" stroke-linecap="round"/>
<path d="M73.9771 49.4539C72.689 49.7401 71.6823 54.0982 72.6039 55.0199C73.3351 55.7511 76.6252 56.1443 76.6252 54.5295C76.6252 53.4201 77.1381 52.321 76.6743 51.2193C76.4206 50.6168 75.3046 49.4115 74.4675 50.1649C73.8488 50.7217 73.9771 52.0208 73.9771 52.7641C73.9771 54.0222 75.5612 52.4253 75.7425 51.8813" stroke="white" stroke-width="3" stroke-linecap="round"/>
<path d="M52.1297 62.9153C52.1297 65.6935 56.7736 68.0852 58.9708 68.984C62.1848 70.2988 65.8587 70.2533 69.2202 69.5357C72.0009 68.9421 74.7439 67.4736 77.2872 66.2255C81.1413 64.3342 84.6332 62.0904 88.1618 59.6419C89.6415 58.6152 91.0966 57.6181 92.5141 56.5156C92.9973 56.1398 93.8382 55.8768 93.8382 55.1915" stroke="white" stroke-width="3" stroke-linecap="round"/>
</svg>
