<svg width="131" height="129" viewBox="0 0 131 129" fill="none" xmlns="http://www.w3.org/2000/svg">
<path d="M0 12C0 5.37258 5.37258 0 12 0H119C125.627 0 131 5.37258 131 12V117C131 123.627 125.627 129 119 129H12C5.37258 129 0 123.627 0 117V12Z" fill="#C2D404"/>
<path d="M29.7083 90.39C30.1643 90.81 30.5003 91.314 30.7163 91.902C30.9323 92.478 31.0163 93.054 30.9683 93.63C30.9203 94.182 30.7463 94.692 30.4463 95.16C30.1463 95.616 29.6903 95.964 29.0783 96.204C28.5983 96.408 28.1243 96.552 27.6563 96.636C27.1883 96.72 26.6723 96.786 26.1083 96.834C25.8563 96.858 25.6403 96.876 25.4603 96.888C25.2923 96.888 25.0943 96.894 24.8663 96.906C24.8183 96.906 24.7343 96.906 24.6143 96.906C24.5063 96.906 24.4283 96.912 24.3803 96.924V100.65C24.3443 100.878 24.2963 101.112 24.2363 101.352C24.1883 101.592 24.0503 101.778 23.8223 101.91C23.6903 101.982 23.5283 102.024 23.3363 102.036C23.1443 102.048 22.9703 102.042 22.8143 102.018C22.6463 101.994 22.5023 101.952 22.3823 101.892C22.2743 101.82 22.1843 101.7 22.1123 101.532C22.0643 101.424 22.0163 101.304 21.9683 101.172C21.9323 101.028 21.9143 100.854 21.9143 100.65V90.696C21.9143 90.612 21.9203 90.534 21.9323 90.462C21.9443 90.39 21.9563 90.318 21.9683 90.246C21.9923 90.186 22.0103 90.12 22.0223 90.048C22.0343 89.976 22.0523 89.91 22.0763 89.85C22.1003 89.79 22.1243 89.736 22.1483 89.688C22.1843 89.64 22.2263 89.598 22.2743 89.562C22.3343 89.502 22.4243 89.448 22.5443 89.4C22.6763 89.352 22.8683 89.328 23.1203 89.328H23.1563C23.5283 89.304 23.9423 89.286 24.3983 89.274C24.8543 89.25 25.2323 89.256 25.5323 89.292C25.7003 89.316 25.8563 89.334 26.0003 89.346C26.1443 89.346 26.2823 89.352 26.4143 89.364C26.5583 89.376 26.7023 89.388 26.8463 89.4C26.9903 89.412 27.1343 89.43 27.2783 89.454C27.3983 89.478 27.5063 89.496 27.6023 89.508C27.7103 89.52 27.8183 89.538 27.9263 89.562C28.0223 89.586 28.1243 89.61 28.2323 89.634C28.3523 89.658 28.4603 89.7 28.5563 89.76C28.8083 89.832 29.0183 89.922 29.1863 90.03C29.3543 90.138 29.5283 90.258 29.7083 90.39ZM28.6283 93.36C28.6403 93.072 28.5803 92.82 28.4483 92.604C28.3283 92.388 28.1543 92.208 27.9263 92.064C27.6983 91.92 27.4403 91.806 27.1523 91.722C26.8643 91.638 26.5763 91.578 26.2883 91.542C26.2163 91.542 26.1143 91.542 25.9823 91.542C25.8623 91.53 25.7303 91.524 25.5863 91.524C25.4423 91.512 25.3043 91.506 25.1723 91.506C25.0523 91.494 24.9563 91.488 24.8843 91.488C24.8243 91.476 24.7523 91.47 24.6683 91.47C24.5843 91.47 24.4883 91.47 24.3803 91.47C24.3923 91.842 24.3983 92.202 24.3983 92.55C24.3983 92.886 24.3983 93.252 24.3983 93.648C24.3863 93.864 24.3803 94.08 24.3803 94.296C24.3803 94.512 24.3803 94.722 24.3803 94.926L25.4963 94.908C25.7843 94.908 26.1023 94.89 26.4503 94.854C26.7983 94.818 27.1283 94.746 27.4403 94.638C27.7523 94.53 28.0163 94.374 28.2323 94.17C28.4603 93.966 28.5923 93.696 28.6283 93.36ZM37.3181 99.534C37.4621 99.498 37.6061 99.474 37.7501 99.462C37.9061 99.45 38.0441 99.468 38.1641 99.516C38.2961 99.564 38.4041 99.648 38.4881 99.768C38.5721 99.876 38.6141 100.032 38.6141 100.236C38.6141 100.38 38.5781 100.518 38.5061 100.65C38.4341 100.782 38.3441 100.902 38.2361 101.01C38.1281 101.118 38.0081 101.214 37.8761 101.298C37.7441 101.37 37.6181 101.43 37.4981 101.478C37.1501 101.634 36.7481 101.754 36.2921 101.838C35.8481 101.922 35.3861 101.952 34.9061 101.928C34.2581 101.904 33.6341 101.778 33.0341 101.55C32.4461 101.31 31.9841 100.92 31.6481 100.38C31.3361 99.852 31.1501 99.264 31.0901 98.616C31.0301 97.968 31.0601 97.356 31.1801 96.78C31.3121 96.084 31.5341 95.52 31.8461 95.088C32.1701 94.644 32.5541 94.29 32.9981 94.026C33.5381 93.714 34.1441 93.552 34.8161 93.54C35.4881 93.528 36.1301 93.66 36.7421 93.936C37.1501 94.116 37.5161 94.362 37.8401 94.674C38.1641 94.974 38.4101 95.34 38.5781 95.772C38.6261 95.88 38.6621 96.012 38.6861 96.168C38.7221 96.324 38.7461 96.492 38.7581 96.672C38.7701 96.84 38.7701 97.008 38.7581 97.176C38.7461 97.344 38.7161 97.494 38.6681 97.626C38.5961 97.842 38.5061 98.01 38.3981 98.13C38.2901 98.25 38.1521 98.34 37.9841 98.4C37.8161 98.46 37.6121 98.502 37.3721 98.526C37.1441 98.538 36.8681 98.55 36.5441 98.562C36.2561 98.574 35.9861 98.58 35.7341 98.58C35.4821 98.58 35.2241 98.58 34.9601 98.58C34.6961 98.568 34.4201 98.562 34.1321 98.562C33.8561 98.55 33.5441 98.538 33.1961 98.526C33.1601 98.766 33.1901 98.976 33.2861 99.156C33.3941 99.324 33.5381 99.468 33.7181 99.588C33.8981 99.696 34.1021 99.78 34.3301 99.84C34.5581 99.9 34.7801 99.936 34.9961 99.948C35.4041 99.972 35.7941 99.942 36.1661 99.858C36.5381 99.762 36.9221 99.654 37.3181 99.534ZM36.5441 96.042C36.3161 95.778 36.0761 95.586 35.8241 95.466C35.6321 95.382 35.4281 95.346 35.2121 95.358C35.0081 95.358 34.8101 95.388 34.6181 95.448C34.2701 95.532 33.9761 95.712 33.7361 95.988C33.7121 96.012 33.6701 96.072 33.6101 96.168C33.5501 96.252 33.4901 96.342 33.4301 96.438C33.3821 96.534 33.3461 96.624 33.3221 96.708C33.2981 96.792 33.3101 96.834 33.3581 96.834H36.8861C36.8741 96.666 36.8441 96.528 36.7961 96.42C36.7481 96.3 36.6641 96.174 36.5441 96.042ZM40.2312 95.628C40.2312 95.484 40.2312 95.322 40.2312 95.142C40.2312 94.95 40.2372 94.758 40.2492 94.566C40.2612 94.362 40.2792 94.17 40.3032 93.99C40.3392 93.798 40.3872 93.63 40.4472 93.486C40.5432 93.27 40.6932 93.126 40.8972 93.054C41.1012 92.97 41.3232 92.934 41.5632 92.946C41.8152 92.946 42.0132 92.988 42.1572 93.072C42.3012 93.156 42.4092 93.27 42.4812 93.414C42.5532 93.546 42.5952 93.702 42.6072 93.882C42.6312 94.05 42.6432 94.23 42.6432 94.422C42.7512 94.23 42.8952 94.074 43.0752 93.954C43.2672 93.834 43.4592 93.738 43.6512 93.666C43.8432 93.594 44.0172 93.546 44.1732 93.522C44.3292 93.486 44.4192 93.468 44.4432 93.468C44.7432 93.444 45.0132 93.438 45.2532 93.45C45.5052 93.462 45.7812 93.516 46.0812 93.612C46.2732 93.684 46.4712 93.786 46.6752 93.918C46.8792 94.038 47.0592 94.182 47.2152 94.35C47.3712 94.518 47.4732 94.704 47.5212 94.908C47.5812 95.1 47.5572 95.304 47.4492 95.52C47.2812 95.82 47.0952 95.97 46.8912 95.97C46.6872 95.958 46.4652 95.922 46.2252 95.862C46.0932 95.838 45.9372 95.784 45.7572 95.7C45.5772 95.616 45.4212 95.562 45.2892 95.538C44.8812 95.478 44.5212 95.508 44.2092 95.628C43.8972 95.748 43.6272 95.892 43.3992 96.06C43.1352 96.264 42.9072 96.498 42.7152 96.762V99.354C42.7152 99.678 42.7092 100.014 42.6972 100.362C42.6972 100.71 42.6492 101.028 42.5532 101.316C42.4692 101.592 42.3192 101.82 42.1032 102C41.8992 102.168 41.5992 102.24 41.2032 102.216C40.9872 102.204 40.7952 102.102 40.6272 101.91C40.4592 101.706 40.3572 101.508 40.3212 101.316C40.2972 101.136 40.2792 100.92 40.2672 100.668C40.2552 100.416 40.2432 100.152 40.2312 99.876C40.2312 99.6 40.2312 99.324 40.2312 99.048C40.2312 98.76 40.2312 98.496 40.2312 98.256V95.628ZM56.1433 94.062C56.2393 94.29 56.2453 94.542 56.1613 94.818C56.0893 95.094 55.9513 95.274 55.7473 95.358C55.6393 95.406 55.4953 95.448 55.3153 95.484C55.1353 95.508 54.9373 95.532 54.7213 95.556C54.5173 95.58 54.3133 95.598 54.1093 95.61C53.9053 95.622 53.7313 95.628 53.5873 95.628C53.5993 95.988 53.6113 96.36 53.6233 96.744C53.6353 97.116 53.6473 97.482 53.6593 97.842C53.6713 98.202 53.6773 98.55 53.6773 98.886C53.6773 99.21 53.6713 99.504 53.6593 99.768C53.6593 99.948 53.6593 100.158 53.6593 100.398C53.6593 100.626 53.6413 100.848 53.6053 101.064C53.5813 101.28 53.5393 101.472 53.4793 101.64C53.4193 101.796 53.3293 101.898 53.2093 101.946C52.8373 102.102 52.4953 102.144 52.1833 102.072C51.8833 102.012 51.6673 101.886 51.5353 101.694C51.4393 101.538 51.3673 101.358 51.3193 101.154C51.2713 100.938 51.2353 100.722 51.2113 100.506C51.1993 100.278 51.1933 100.062 51.1933 99.858C51.2053 99.642 51.2113 99.456 51.2113 99.3C51.2233 98.796 51.2293 98.226 51.2293 97.59C51.2413 96.942 51.2473 96.294 51.2473 95.646H50.9773C50.8333 95.646 50.6473 95.646 50.4193 95.646C50.2033 95.634 49.9813 95.616 49.7533 95.592C49.5373 95.556 49.3333 95.514 49.1413 95.466C48.9493 95.406 48.8113 95.322 48.7273 95.214C48.5953 95.058 48.5113 94.89 48.4753 94.71C48.4513 94.53 48.4633 94.362 48.5113 94.206C48.5713 94.038 48.6613 93.894 48.7813 93.774C48.9013 93.642 49.0393 93.558 49.1953 93.522C49.4113 93.462 49.7173 93.432 50.1133 93.432C50.5093 93.42 50.8813 93.42 51.2293 93.432C51.2173 93.312 51.2113 93.198 51.2113 93.09C51.2113 92.97 51.2053 92.856 51.1933 92.748C51.1813 92.604 51.1753 92.424 51.1753 92.208C51.1753 91.98 51.1873 91.758 51.2113 91.542C51.2473 91.314 51.3013 91.104 51.3733 90.912C51.4453 90.708 51.5473 90.552 51.6793 90.444C51.8593 90.3 52.0393 90.222 52.2193 90.21C52.4113 90.186 52.5853 90.21 52.7413 90.282C52.9093 90.354 53.0473 90.462 53.1553 90.606C53.2753 90.738 53.3593 90.888 53.4073 91.056C53.4433 91.2 53.4733 91.374 53.4973 91.578C53.5213 91.77 53.5333 91.974 53.5333 92.19C53.5453 92.406 53.5513 92.622 53.5513 92.838C53.5513 93.054 53.5513 93.252 53.5513 93.432H53.7313C53.9113 93.432 54.1213 93.426 54.3613 93.414C54.6013 93.402 54.8353 93.408 55.0633 93.432C55.3033 93.456 55.5193 93.516 55.7113 93.612C55.9033 93.696 56.0473 93.846 56.1433 94.062ZM63.1755 99.534C63.3195 99.498 63.4635 99.474 63.6075 99.462C63.7635 99.45 63.9015 99.468 64.0215 99.516C64.1535 99.564 64.2615 99.648 64.3455 99.768C64.4295 99.876 64.4715 100.032 64.4715 100.236C64.4715 100.38 64.4355 100.518 64.3635 100.65C64.2915 100.782 64.2015 100.902 64.0935 101.01C63.9855 101.118 63.8655 101.214 63.7335 101.298C63.6015 101.37 63.4755 101.43 63.3555 101.478C63.0075 101.634 62.6055 101.754 62.1495 101.838C61.7055 101.922 61.2435 101.952 60.7635 101.928C60.1155 101.904 59.4915 101.778 58.8915 101.55C58.3035 101.31 57.8415 100.92 57.5055 100.38C57.1935 99.852 57.0075 99.264 56.9475 98.616C56.8875 97.968 56.9175 97.356 57.0375 96.78C57.1695 96.084 57.3915 95.52 57.7035 95.088C58.0275 94.644 58.4115 94.29 58.8555 94.026C59.3955 93.714 60.0015 93.552 60.6735 93.54C61.3455 93.528 61.9875 93.66 62.5995 93.936C63.0075 94.116 63.3735 94.362 63.6975 94.674C64.0215 94.974 64.2675 95.34 64.4355 95.772C64.4835 95.88 64.5195 96.012 64.5435 96.168C64.5795 96.324 64.6035 96.492 64.6155 96.672C64.6275 96.84 64.6275 97.008 64.6155 97.176C64.6035 97.344 64.5735 97.494 64.5255 97.626C64.4535 97.842 64.3635 98.01 64.2555 98.13C64.1475 98.25 64.0095 98.34 63.8415 98.4C63.6735 98.46 63.4695 98.502 63.2295 98.526C63.0015 98.538 62.7255 98.55 62.4015 98.562C62.1135 98.574 61.8435 98.58 61.5915 98.58C61.3395 98.58 61.0815 98.58 60.8175 98.58C60.5535 98.568 60.2775 98.562 59.9895 98.562C59.7135 98.55 59.4015 98.538 59.0535 98.526C59.0175 98.766 59.0475 98.976 59.1435 99.156C59.2515 99.324 59.3955 99.468 59.5755 99.588C59.7555 99.696 59.9595 99.78 60.1875 99.84C60.4155 99.9 60.6375 99.936 60.8535 99.948C61.2615 99.972 61.6515 99.942 62.0235 99.858C62.3955 99.762 62.7795 99.654 63.1755 99.534ZM62.4015 96.042C62.1735 95.778 61.9335 95.586 61.6815 95.466C61.4895 95.382 61.2855 95.346 61.0695 95.358C60.8655 95.358 60.6675 95.388 60.4755 95.448C60.1275 95.532 59.8335 95.712 59.5935 95.988C59.5695 96.012 59.5275 96.072 59.4675 96.168C59.4075 96.252 59.3475 96.342 59.2875 96.438C59.2395 96.534 59.2035 96.624 59.1795 96.708C59.1555 96.792 59.1675 96.834 59.2155 96.834H62.7435C62.7315 96.666 62.7015 96.528 62.6535 96.42C62.6055 96.3 62.5215 96.174 62.4015 96.042ZM66.0886 95.574C66.0886 95.298 66.0826 95.004 66.0706 94.692C66.0706 94.38 66.1246 94.098 66.2326 93.846C66.3286 93.618 66.4846 93.456 66.7006 93.36C66.9286 93.252 67.1506 93.228 67.3666 93.288C67.5826 93.324 67.7506 93.39 67.8706 93.486C67.9906 93.582 68.0746 93.696 68.1226 93.828C68.1826 93.948 68.2186 94.092 68.2306 94.26C68.2426 94.416 68.2546 94.572 68.2666 94.728C68.3866 94.512 68.5366 94.338 68.7166 94.206C68.8966 94.074 69.0826 93.966 69.2746 93.882C69.4666 93.798 69.6466 93.738 69.8146 93.702C69.9946 93.666 70.1326 93.648 70.2286 93.648C70.6846 93.648 71.1346 93.75 71.5786 93.954C72.0346 94.146 72.4126 94.422 72.7126 94.782C72.8806 94.998 73.0066 95.226 73.0906 95.466C73.1866 95.694 73.2526 95.934 73.2886 96.186C73.3366 96.438 73.3666 96.696 73.3786 96.96C73.3906 97.212 73.4026 97.47 73.4146 97.734C73.4746 98.502 73.4746 99.264 73.4146 100.02C73.4026 100.176 73.3966 100.356 73.3966 100.56C73.3966 100.764 73.3786 100.968 73.3426 101.172C73.3186 101.364 73.2646 101.538 73.1806 101.694C73.1086 101.838 72.9826 101.928 72.8026 101.964C72.5506 102.024 72.3406 102.036 72.1726 102C72.0166 101.976 71.8906 101.922 71.7946 101.838C71.6986 101.754 71.6266 101.646 71.5786 101.514C71.5306 101.382 71.4886 101.232 71.4526 101.064C71.4286 100.932 71.4046 100.782 71.3806 100.614C71.3686 100.434 71.3566 100.254 71.3446 100.074C71.3446 99.894 71.3386 99.72 71.3266 99.552C71.3266 99.372 71.3266 99.21 71.3266 99.066C71.3266 98.838 71.3206 98.586 71.3086 98.31C71.2966 98.034 71.2966 97.776 71.3086 97.536C71.3086 96.972 71.1586 96.546 70.8586 96.258C70.5706 95.958 70.1746 95.832 69.6706 95.88C69.2866 95.928 68.9506 96.084 68.6626 96.348C68.3746 96.6 68.2366 96.93 68.2486 97.338C68.2486 97.494 68.2486 97.638 68.2486 97.77C68.2486 97.902 68.2426 98.034 68.2306 98.166C68.2306 98.298 68.2306 98.442 68.2306 98.598C68.2306 98.754 68.2306 98.928 68.2306 99.12C68.2306 99.516 68.2306 99.936 68.2306 100.38C68.2306 100.812 68.1766 101.166 68.0686 101.442C67.9726 101.73 67.8106 101.928 67.5826 102.036C67.3546 102.144 67.0846 102.114 66.7726 101.946C66.6406 101.874 66.5326 101.778 66.4486 101.658C66.3766 101.526 66.3166 101.388 66.2686 101.244C66.2326 101.1 66.2086 100.956 66.1966 100.812C66.1846 100.656 66.1726 100.512 66.1606 100.38C66.1246 99.984 66.1006 99.618 66.0886 99.282C66.0886 98.934 66.0886 98.562 66.0886 98.166V95.574ZM81.1404 99.534C81.2844 99.498 81.4284 99.474 81.5724 99.462C81.7284 99.45 81.8664 99.468 81.9864 99.516C82.1184 99.564 82.2264 99.648 82.3104 99.768C82.3944 99.876 82.4364 100.032 82.4364 100.236C82.4364 100.38 82.4004 100.518 82.3284 100.65C82.2564 100.782 82.1664 100.902 82.0584 101.01C81.9504 101.118 81.8304 101.214 81.6984 101.298C81.5664 101.37 81.4404 101.43 81.3204 101.478C80.9724 101.634 80.5704 101.754 80.1144 101.838C79.6704 101.922 79.2084 101.952 78.7284 101.928C78.0804 101.904 77.4564 101.778 76.8564 101.55C76.2684 101.31 75.8064 100.92 75.4704 100.38C75.1584 99.852 74.9724 99.264 74.9124 98.616C74.8524 97.968 74.8824 97.356 75.0024 96.78C75.1344 96.084 75.3564 95.52 75.6684 95.088C75.9924 94.644 76.3764 94.29 76.8204 94.026C77.3604 93.714 77.9664 93.552 78.6384 93.54C79.3104 93.528 79.9524 93.66 80.5644 93.936C80.9724 94.116 81.3384 94.362 81.6624 94.674C81.9864 94.974 82.2324 95.34 82.4004 95.772C82.4484 95.88 82.4844 96.012 82.5084 96.168C82.5444 96.324 82.5684 96.492 82.5804 96.672C82.5924 96.84 82.5924 97.008 82.5804 97.176C82.5684 97.344 82.5384 97.494 82.4904 97.626C82.4184 97.842 82.3284 98.01 82.2204 98.13C82.1124 98.25 81.9744 98.34 81.8064 98.4C81.6384 98.46 81.4344 98.502 81.1944 98.526C80.9664 98.538 80.6904 98.55 80.3664 98.562C80.0784 98.574 79.8084 98.58 79.5564 98.58C79.3044 98.58 79.0464 98.58 78.7824 98.58C78.5184 98.568 78.2424 98.562 77.9544 98.562C77.6784 98.55 77.3664 98.538 77.0184 98.526C76.9824 98.766 77.0124 98.976 77.1084 99.156C77.2164 99.324 77.3604 99.468 77.5404 99.588C77.7204 99.696 77.9244 99.78 78.1524 99.84C78.3804 99.9 78.6024 99.936 78.8184 99.948C79.2264 99.972 79.6164 99.942 79.9884 99.858C80.3604 99.762 80.7444 99.654 81.1404 99.534ZM80.3664 96.042C80.1384 95.778 79.8984 95.586 79.6464 95.466C79.4544 95.382 79.2504 95.346 79.0344 95.358C78.8304 95.358 78.6324 95.388 78.4404 95.448C78.0924 95.532 77.7984 95.712 77.5584 95.988C77.5344 96.012 77.4924 96.072 77.4324 96.168C77.3724 96.252 77.3124 96.342 77.2524 96.438C77.2044 96.534 77.1684 96.624 77.1444 96.708C77.1204 96.792 77.1324 96.834 77.1804 96.834H80.7084C80.6964 96.666 80.6664 96.528 80.6184 96.42C80.5704 96.3 80.4864 96.174 80.3664 96.042ZM88.9674 99.84C89.1474 99.84 89.3454 99.846 89.5614 99.858C89.7894 99.858 90.0054 99.876 90.2094 99.912C90.4254 99.936 90.6174 99.984 90.7854 100.056C90.9654 100.128 91.0914 100.224 91.1634 100.344C91.3434 100.656 91.3974 100.938 91.3254 101.19C91.2654 101.43 91.1334 101.616 90.9294 101.748C90.7134 101.904 90.4614 102.006 90.1734 102.054C89.8854 102.114 89.6214 102.138 89.3814 102.126C88.8894 102.102 88.3674 102.096 87.8154 102.108C87.2634 102.132 86.7414 102.15 86.2494 102.162C86.0814 102.162 85.9014 102.162 85.7094 102.162C85.5294 102.174 85.3554 102.162 85.1874 102.126C85.0194 102.102 84.8574 102.048 84.7014 101.964C84.5574 101.88 84.4314 101.748 84.3234 101.568C84.1794 101.34 84.1434 101.112 84.2154 100.884C84.2994 100.644 84.3954 100.422 84.5034 100.218C84.6714 99.918 84.8694 99.624 85.0974 99.336C85.3374 99.048 85.5414 98.802 85.7094 98.598L87.9594 95.646L86.1414 95.7C85.9974 95.7 85.8414 95.7 85.6734 95.7C85.5174 95.7 85.3554 95.688 85.1874 95.664C85.0194 95.628 84.8634 95.586 84.7194 95.538C84.5754 95.49 84.4494 95.418 84.3414 95.322C84.2334 95.214 84.1554 95.094 84.1074 94.962C84.0594 94.818 84.0354 94.674 84.0354 94.53C84.0474 94.386 84.0774 94.248 84.1254 94.116C84.1854 93.972 84.2634 93.846 84.3594 93.738C84.4314 93.666 84.5214 93.606 84.6294 93.558C84.7494 93.51 84.8814 93.474 85.0254 93.45C85.1694 93.426 85.3134 93.414 85.4574 93.414C85.6134 93.402 85.7574 93.396 85.8894 93.396C86.1534 93.396 86.4474 93.396 86.7714 93.396C87.0954 93.396 87.4074 93.396 87.7074 93.396C88.0194 93.384 88.3074 93.378 88.5714 93.378C88.8474 93.366 89.0694 93.36 89.2374 93.36C89.4534 93.36 89.6694 93.354 89.8854 93.342C90.1014 93.33 90.3054 93.348 90.4974 93.396C90.6894 93.444 90.8514 93.534 90.9834 93.666C91.1274 93.786 91.2174 93.984 91.2534 94.26C91.2774 94.44 91.2654 94.62 91.2174 94.8C91.1814 94.968 91.1154 95.136 91.0194 95.304C90.9354 95.46 90.8334 95.622 90.7134 95.79C90.5934 95.946 90.4734 96.096 90.3534 96.24L87.5634 99.84H88.9674ZM98.9228 95.07C99.0188 95.238 99.0668 95.418 99.0668 95.61C99.0788 95.802 99.0368 95.982 98.9408 96.15C98.8328 96.366 98.6768 96.516 98.4728 96.6C98.2808 96.672 98.0648 96.678 97.8248 96.618C97.7168 96.594 97.6208 96.552 97.5368 96.492C97.4528 96.432 97.3628 96.372 97.2668 96.312C97.1828 96.24 97.0808 96.174 96.9608 96.114C96.8528 96.054 96.7088 96.012 96.5288 95.988C96.3488 95.964 96.1508 95.964 95.9348 95.988C95.7308 96.012 95.5448 96.06 95.3768 96.132C95.1128 96.264 94.9028 96.468 94.7468 96.744C94.5908 97.008 94.4888 97.296 94.4408 97.608C94.3928 97.908 94.3988 98.214 94.4588 98.526C94.5308 98.838 94.6628 99.102 94.8548 99.318C94.9988 99.486 95.1848 99.624 95.4128 99.732C95.6528 99.84 95.8808 99.906 96.0968 99.93C96.3008 99.954 96.5048 99.954 96.7088 99.93C96.9128 99.894 97.1108 99.846 97.3028 99.786C97.4468 99.726 97.6088 99.648 97.7888 99.552C97.9688 99.444 98.1428 99.378 98.3108 99.354C98.5268 99.354 98.6948 99.414 98.8148 99.534C98.9348 99.642 99.0188 99.78 99.0668 99.948C99.1148 100.104 99.1208 100.272 99.0848 100.452C99.0608 100.632 98.9948 100.788 98.8868 100.92C98.7428 101.1 98.5388 101.274 98.2748 101.442C98.0108 101.598 97.7588 101.712 97.5188 101.784C97.2308 101.88 96.9068 101.934 96.5468 101.946C96.1988 101.958 95.8688 101.946 95.5568 101.91C95.4128 101.886 95.2628 101.856 95.1068 101.82C94.9508 101.784 94.8008 101.742 94.6568 101.694C94.1288 101.502 93.6848 101.232 93.3248 100.884C92.9768 100.524 92.7068 100.122 92.5148 99.678C92.3348 99.234 92.2328 98.76 92.2088 98.256C92.1848 97.752 92.2448 97.254 92.3888 96.762C92.5208 96.294 92.6828 95.898 92.8748 95.574C93.0788 95.25 93.3128 94.986 93.5768 94.782C93.8528 94.566 94.1588 94.398 94.4948 94.278C94.8308 94.146 95.2028 94.032 95.6108 93.936C96.0308 93.852 96.4748 93.852 96.9428 93.936C97.4108 94.02 97.8308 94.176 98.2028 94.404C98.4908 94.56 98.7308 94.782 98.9228 95.07ZM102.863 93.864C103.259 93.672 103.673 93.534 104.105 93.45C104.537 93.366 104.963 93.348 105.383 93.396C105.815 93.444 106.229 93.558 106.625 93.738C107.033 93.918 107.405 94.17 107.741 94.494C108.017 94.77 108.257 95.106 108.461 95.502C108.665 95.886 108.815 96.264 108.911 96.636C109.115 97.296 109.145 97.962 109.001 98.634C108.857 99.306 108.611 99.93 108.263 100.506C108.095 100.77 107.885 101.01 107.633 101.226C107.393 101.43 107.135 101.598 106.859 101.73C106.499 101.898 106.109 102.012 105.689 102.072C105.269 102.144 104.861 102.162 104.465 102.126C103.745 102.09 103.109 101.91 102.557 101.586C102.017 101.262 101.579 100.848 101.243 100.344C100.919 99.84 100.703 99.27 100.595 98.634C100.499 97.986 100.541 97.326 100.721 96.654C100.913 95.934 101.189 95.352 101.549 94.908C101.921 94.452 102.359 94.104 102.863 93.864ZM103.403 96.276C103.223 96.444 103.085 96.654 102.989 96.906C102.893 97.158 102.833 97.422 102.809 97.698C102.785 97.962 102.803 98.232 102.863 98.508C102.935 98.772 103.043 99.012 103.187 99.228C103.307 99.408 103.523 99.558 103.835 99.678C104.147 99.798 104.471 99.87 104.807 99.894C105.191 99.918 105.527 99.816 105.815 99.588C106.103 99.348 106.319 99.054 106.463 98.706C106.619 98.358 106.691 97.98 106.679 97.572C106.667 97.164 106.559 96.792 106.355 96.456C106.211 96.216 106.007 96.042 105.743 95.934C105.491 95.814 105.221 95.754 104.933 95.754C104.657 95.742 104.381 95.784 104.105 95.88C103.829 95.964 103.595 96.096 103.403 96.276Z" fill="white"/>
<path d="M35.3993 75.5853C34.5934 75.4845 38.9336 71.7295 39.2799 71.4898C42.7007 69.1216 45.9614 67.3458 49.822 65.8016C53.0684 64.5031 56.5905 63.885 60.0859 63.7665C64.7537 63.6083 68.721 64.1938 73.1687 65.5741C77.5977 66.9486 81.3815 68.833 85.1771 71.3634C86.3319 72.1333 89.1711 73.461 89.7781 74.6751" stroke="white" stroke-width="3" stroke-linecap="round"/>
<path d="M47.0032 38.4984C53.2669 38.4984 59.5595 38.7259 65.7994 38.7259C69.2723 38.7259 72.6714 39.181 76.1266 39.181" stroke="white" stroke-width="3" stroke-linecap="round"/>
<path d="M46.0931 38.0433C46.0931 37.1097 46.7266 36.4976 47.2307 35.7681C48.3026 34.2166 49.4223 32.6663 50.7574 31.3313C52.8981 29.1906 54.4265 26.3306 56.7868 24.4423C57.8835 23.565 59.3629 21.5314 60.7685 21.219C62.6105 20.8097 64.3801 22.0012 65.6098 23.2036C67.519 25.0703 69.5829 26.8599 70.9946 29.1698C71.8661 30.596 72.7335 32.0283 73.6238 33.4422C74.2664 34.4629 74.7931 35.6425 75.5577 36.5771C75.7751 36.8427 77.0367 38.9046 77.0367 38.7259" stroke="white" stroke-width="3" stroke-linecap="round"/>
<path d="M51.3262 64.6639C51.3262 58.4389 51.3862 52.2041 51.5537 46.0068C51.5853 44.8381 52.0088 43.5992 52.0088 42.4801C52.0088 41.732 51.8187 40.7175 52.2363 40.0911" stroke="white" stroke-width="3" stroke-linecap="round"/>
<path d="M71.121 64.2089C71.121 59.1813 70.861 54.0518 71.3359 49.0657C71.5765 46.5392 71.576 44.0117 71.576 41.4562" stroke="white" stroke-width="3" stroke-linecap="round"/>
<path d="M65.6603 51.9225V51.6949" stroke="white" stroke-width="3" stroke-linecap="round"/>
</svg>
